G75*
%MOIN*%
%OFA0B0*%
%FSLAX25Y25*%
%IPPOS*%
%LPD*%
%AMOC8*
5,1,8,0,0,1.08239X$1,22.5*
%
%ADD10OC8,0.05400*%
%ADD11C,0.05400*%
%ADD12C,0.05324*%
%ADD13C,0.06600*%
%ADD14C,0.10443*%
%ADD15C,0.11624*%
%ADD16C,0.06600*%
%ADD17OC8,0.15600*%
%ADD18C,0.13261*%
%ADD19C,0.11850*%
%ADD20C,0.06506*%
%ADD21C,0.07687*%
%ADD22C,0.03969*%
%ADD23C,0.05915*%
D10*
X0475000Y0323933D03*
X0485000Y0323933D03*
X0610000Y0423933D03*
X0620000Y0423933D03*
X0665000Y0433933D03*
X0665000Y0443933D03*
X0745000Y0568933D03*
X0755000Y0568933D03*
X1090000Y0358933D03*
X1100000Y0358933D03*
X1275000Y0403933D03*
X1305000Y0403933D03*
X1305000Y0443933D03*
X1275000Y0443933D03*
X1275000Y0463933D03*
X1305000Y0463933D03*
X1305000Y0503933D03*
X1305000Y0518933D03*
X1275000Y0518933D03*
X1275000Y0503933D03*
X1275000Y0558933D03*
X1275000Y0578933D03*
X1305000Y0578933D03*
X1305000Y0558933D03*
X1305000Y0618933D03*
X1275000Y0618933D03*
X1285000Y0648933D03*
X1295000Y0648933D03*
X1210000Y0743933D03*
X1200000Y0743933D03*
X1065000Y0823933D03*
X1055000Y0823933D03*
X1170000Y0903933D03*
X1180000Y0903933D03*
X1200000Y0903933D03*
X1205000Y0911433D03*
X1210000Y0903933D03*
X0845000Y0823933D03*
X0835000Y0823933D03*
X0625000Y0868933D03*
X0600000Y0861433D03*
X0590000Y0861433D03*
X0537500Y0873933D03*
X0532500Y0898933D03*
X0542500Y0898933D03*
X0625000Y0908933D03*
X0537500Y0833933D03*
X1190000Y0538933D03*
X1200000Y0538933D03*
D11*
X1207600Y0558933D02*
X1212400Y0558933D01*
X1212400Y0568933D02*
X1207600Y0568933D01*
X1207600Y0578933D02*
X1212400Y0578933D01*
X1212400Y0588933D02*
X1207600Y0588933D01*
X1207600Y0598933D02*
X1212400Y0598933D01*
X1212400Y0608933D02*
X1207600Y0608933D01*
X1207600Y0618933D02*
X1212400Y0618933D01*
X1212400Y0628933D02*
X1207600Y0628933D01*
X1207600Y0638933D02*
X1212400Y0638933D01*
X1182400Y0638933D02*
X1177600Y0638933D01*
X1177600Y0628933D02*
X1182400Y0628933D01*
X1182400Y0618933D02*
X1177600Y0618933D01*
X1177600Y0608933D02*
X1182400Y0608933D01*
X1182400Y0598933D02*
X1177600Y0598933D01*
X1177600Y0588933D02*
X1182400Y0588933D01*
X1182400Y0578933D02*
X1177600Y0578933D01*
X1177600Y0568933D02*
X1182400Y0568933D01*
X1182400Y0558933D02*
X1177600Y0558933D01*
X1092400Y0543933D02*
X1087600Y0543933D01*
X1087600Y0533933D02*
X1092400Y0533933D01*
X1092400Y0523933D02*
X1087600Y0523933D01*
X1087600Y0513933D02*
X1092400Y0513933D01*
X1092400Y0503933D02*
X1087600Y0503933D01*
X1087600Y0493933D02*
X1092400Y0493933D01*
X1092400Y0483933D02*
X1087600Y0483933D01*
X1087600Y0473933D02*
X1092400Y0473933D01*
X1092400Y0463933D02*
X1087600Y0463933D01*
X1087600Y0453933D02*
X1092400Y0453933D01*
X1092400Y0443933D02*
X1087600Y0443933D01*
X1087600Y0433933D02*
X1092400Y0433933D01*
X1092400Y0423933D02*
X1087600Y0423933D01*
X1087600Y0413933D02*
X1092400Y0413933D01*
X1032400Y0413933D02*
X1027600Y0413933D01*
X1027600Y0423933D02*
X1032400Y0423933D01*
X1032400Y0433933D02*
X1027600Y0433933D01*
X1027600Y0443933D02*
X1032400Y0443933D01*
X1032400Y0453933D02*
X1027600Y0453933D01*
X1027600Y0463933D02*
X1032400Y0463933D01*
X1032400Y0473933D02*
X1027600Y0473933D01*
X1027600Y0483933D02*
X1032400Y0483933D01*
X1032400Y0493933D02*
X1027600Y0493933D01*
X1027600Y0503933D02*
X1032400Y0503933D01*
X1032400Y0513933D02*
X1027600Y0513933D01*
X1027600Y0523933D02*
X1032400Y0523933D01*
X1032400Y0533933D02*
X1027600Y0533933D01*
X1027600Y0543933D02*
X1032400Y0543933D01*
X1032400Y0643933D02*
X1027600Y0643933D01*
X1027600Y0653933D02*
X1032400Y0653933D01*
X1032400Y0663933D02*
X1027600Y0663933D01*
X1027600Y0673933D02*
X1032400Y0673933D01*
X1032400Y0683933D02*
X1027600Y0683933D01*
X1027600Y0693933D02*
X1032400Y0693933D01*
X1032400Y0703933D02*
X1027600Y0703933D01*
X1027600Y0713933D02*
X1032400Y0713933D01*
X1032400Y0723933D02*
X1027600Y0723933D01*
X1027600Y0733933D02*
X1032400Y0733933D01*
X1032400Y0743933D02*
X1027600Y0743933D01*
X1027600Y0753933D02*
X1032400Y0753933D01*
X1032400Y0763933D02*
X1027600Y0763933D01*
X1027600Y0773933D02*
X1032400Y0773933D01*
X1087600Y0773933D02*
X1092400Y0773933D01*
X1092400Y0763933D02*
X1087600Y0763933D01*
X1087600Y0753933D02*
X1092400Y0753933D01*
X1092400Y0743933D02*
X1087600Y0743933D01*
X1087600Y0733933D02*
X1092400Y0733933D01*
X1092400Y0723933D02*
X1087600Y0723933D01*
X1087600Y0713933D02*
X1092400Y0713933D01*
X1092400Y0703933D02*
X1087600Y0703933D01*
X1087600Y0693933D02*
X1092400Y0693933D01*
X1092400Y0683933D02*
X1087600Y0683933D01*
X1087600Y0673933D02*
X1092400Y0673933D01*
X1092400Y0663933D02*
X1087600Y0663933D01*
X1087600Y0653933D02*
X1092400Y0653933D01*
X1092400Y0643933D02*
X1087600Y0643933D01*
X1187600Y0768933D02*
X1192400Y0768933D01*
X1192400Y0778933D02*
X1187600Y0778933D01*
X1187600Y0788933D02*
X1192400Y0788933D01*
X1192400Y0798933D02*
X1187600Y0798933D01*
X1187600Y0808933D02*
X1192400Y0808933D01*
X1192400Y0818933D02*
X1187600Y0818933D01*
X1187600Y0828933D02*
X1192400Y0828933D01*
X1192400Y0838933D02*
X1187600Y0838933D01*
X1187600Y0848933D02*
X1192400Y0848933D01*
X1192400Y0858933D02*
X1187600Y0858933D01*
X1217600Y0858933D02*
X1222400Y0858933D01*
X1222400Y0848933D02*
X1217600Y0848933D01*
X1217600Y0838933D02*
X1222400Y0838933D01*
X1222400Y0828933D02*
X1217600Y0828933D01*
X1217600Y0818933D02*
X1222400Y0818933D01*
X1222400Y0808933D02*
X1217600Y0808933D01*
X1217600Y0798933D02*
X1222400Y0798933D01*
X1222400Y0788933D02*
X1217600Y0788933D01*
X1217600Y0778933D02*
X1222400Y0778933D01*
X1222400Y0768933D02*
X1217600Y0768933D01*
X1272600Y0768933D02*
X1277400Y0768933D01*
X1277400Y0758933D02*
X1272600Y0758933D01*
X1272600Y0748933D02*
X1277400Y0748933D01*
X1277400Y0738933D02*
X1272600Y0738933D01*
X1272600Y0728933D02*
X1277400Y0728933D01*
X1277400Y0718933D02*
X1272600Y0718933D01*
X1272600Y0708933D02*
X1277400Y0708933D01*
X1277400Y0698933D02*
X1272600Y0698933D01*
X1272600Y0688933D02*
X1277400Y0688933D01*
X1277400Y0678933D02*
X1272600Y0678933D01*
X1302600Y0678933D02*
X1307400Y0678933D01*
X1307400Y0688933D02*
X1302600Y0688933D01*
X1302600Y0698933D02*
X1307400Y0698933D01*
X1307400Y0708933D02*
X1302600Y0708933D01*
X1302600Y0718933D02*
X1307400Y0718933D01*
X1307400Y0728933D02*
X1302600Y0728933D01*
X1302600Y0738933D02*
X1307400Y0738933D01*
X1307400Y0748933D02*
X1302600Y0748933D01*
X1302600Y0758933D02*
X1307400Y0758933D01*
X1307400Y0768933D02*
X1302600Y0768933D01*
X0872400Y0763933D02*
X0867600Y0763933D01*
X0867600Y0753933D02*
X0872400Y0753933D01*
X0872400Y0743933D02*
X0867600Y0743933D01*
X0867600Y0733933D02*
X0872400Y0733933D01*
X0872400Y0723933D02*
X0867600Y0723933D01*
X0867600Y0713933D02*
X0872400Y0713933D01*
X0872400Y0703933D02*
X0867600Y0703933D01*
X0867600Y0693933D02*
X0872400Y0693933D01*
X0872400Y0683933D02*
X0867600Y0683933D01*
X0867600Y0673933D02*
X0872400Y0673933D01*
X0872400Y0663933D02*
X0867600Y0663933D01*
X0867600Y0653933D02*
X0872400Y0653933D01*
X0872400Y0643933D02*
X0867600Y0643933D01*
X0812400Y0643933D02*
X0807600Y0643933D01*
X0807600Y0653933D02*
X0812400Y0653933D01*
X0812400Y0663933D02*
X0807600Y0663933D01*
X0807600Y0673933D02*
X0812400Y0673933D01*
X0812400Y0683933D02*
X0807600Y0683933D01*
X0807600Y0693933D02*
X0812400Y0693933D01*
X0812400Y0703933D02*
X0807600Y0703933D01*
X0807600Y0713933D02*
X0812400Y0713933D01*
X0812400Y0723933D02*
X0807600Y0723933D01*
X0807600Y0733933D02*
X0812400Y0733933D01*
X0812400Y0743933D02*
X0807600Y0743933D01*
X0807600Y0753933D02*
X0812400Y0753933D01*
X0812400Y0763933D02*
X0807600Y0763933D01*
X0807600Y0773933D02*
X0812400Y0773933D01*
X0867600Y0773933D02*
X0872400Y0773933D01*
X0742400Y0768933D02*
X0737600Y0768933D01*
X0737600Y0758933D02*
X0742400Y0758933D01*
X0742400Y0748933D02*
X0737600Y0748933D01*
X0737600Y0738933D02*
X0742400Y0738933D01*
X0742400Y0728933D02*
X0737600Y0728933D01*
X0737600Y0718933D02*
X0742400Y0718933D01*
X0742400Y0708933D02*
X0737600Y0708933D01*
X0737600Y0698933D02*
X0742400Y0698933D01*
X0712400Y0698933D02*
X0707600Y0698933D01*
X0707600Y0708933D02*
X0712400Y0708933D01*
X0712400Y0718933D02*
X0707600Y0718933D01*
X0707600Y0728933D02*
X0712400Y0728933D01*
X0712400Y0738933D02*
X0707600Y0738933D01*
X0707600Y0748933D02*
X0712400Y0748933D01*
X0712400Y0758933D02*
X0707600Y0758933D01*
X0707600Y0768933D02*
X0712400Y0768933D01*
X0712400Y0778933D02*
X0707600Y0778933D01*
X0707600Y0788933D02*
X0712400Y0788933D01*
X0737600Y0788933D02*
X0742400Y0788933D01*
X0742400Y0778933D02*
X0737600Y0778933D01*
X0652400Y0778933D02*
X0647600Y0778933D01*
X0647600Y0768933D02*
X0652400Y0768933D01*
X0652400Y0758933D02*
X0647600Y0758933D01*
X0647600Y0748933D02*
X0652400Y0748933D01*
X0652400Y0738933D02*
X0647600Y0738933D01*
X0647600Y0728933D02*
X0652400Y0728933D01*
X0652400Y0718933D02*
X0647600Y0718933D01*
X0647600Y0708933D02*
X0652400Y0708933D01*
X0652400Y0698933D02*
X0647600Y0698933D01*
X0647600Y0688933D02*
X0652400Y0688933D01*
X0652400Y0678933D02*
X0647600Y0678933D01*
X0647600Y0668933D02*
X0652400Y0668933D01*
X0652400Y0658933D02*
X0647600Y0658933D01*
X0647600Y0648933D02*
X0652400Y0648933D01*
X0652400Y0638933D02*
X0647600Y0638933D01*
X0647600Y0628933D02*
X0652400Y0628933D01*
X0652400Y0618933D02*
X0647600Y0618933D01*
X0647600Y0608933D02*
X0652400Y0608933D01*
X0652400Y0598933D02*
X0647600Y0598933D01*
X0592400Y0598933D02*
X0587600Y0598933D01*
X0587600Y0608933D02*
X0592400Y0608933D01*
X0592400Y0618933D02*
X0587600Y0618933D01*
X0587600Y0628933D02*
X0592400Y0628933D01*
X0592400Y0638933D02*
X0587600Y0638933D01*
X0587600Y0648933D02*
X0592400Y0648933D01*
X0592400Y0658933D02*
X0587600Y0658933D01*
X0587600Y0668933D02*
X0592400Y0668933D01*
X0592400Y0678933D02*
X0587600Y0678933D01*
X0587600Y0688933D02*
X0592400Y0688933D01*
X0592400Y0698933D02*
X0587600Y0698933D01*
X0587600Y0708933D02*
X0592400Y0708933D01*
X0592400Y0718933D02*
X0587600Y0718933D01*
X0587600Y0728933D02*
X0592400Y0728933D01*
X0592400Y0738933D02*
X0587600Y0738933D01*
X0587600Y0748933D02*
X0592400Y0748933D01*
X0592400Y0758933D02*
X0587600Y0758933D01*
X0587600Y0768933D02*
X0592400Y0768933D01*
X0592400Y0778933D02*
X0587600Y0778933D01*
X0587600Y0788933D02*
X0592400Y0788933D01*
X0647600Y0788933D02*
X0652400Y0788933D01*
X0632400Y0553933D02*
X0627600Y0553933D01*
X0627600Y0543933D02*
X0632400Y0543933D01*
X0632400Y0533933D02*
X0627600Y0533933D01*
X0627600Y0523933D02*
X0632400Y0523933D01*
X0632400Y0513933D02*
X0627600Y0513933D01*
X0627600Y0503933D02*
X0632400Y0503933D01*
X0632400Y0493933D02*
X0627600Y0493933D01*
X0627600Y0483933D02*
X0632400Y0483933D01*
X0632400Y0473933D02*
X0627600Y0473933D01*
X0627600Y0463933D02*
X0632400Y0463933D01*
X0632400Y0453933D02*
X0627600Y0453933D01*
X0627600Y0443933D02*
X0632400Y0443933D01*
X0602400Y0443933D02*
X0597600Y0443933D01*
X0597600Y0453933D02*
X0602400Y0453933D01*
X0602400Y0463933D02*
X0597600Y0463933D01*
X0597600Y0473933D02*
X0602400Y0473933D01*
X0602400Y0483933D02*
X0597600Y0483933D01*
X0597600Y0493933D02*
X0602400Y0493933D01*
X0602400Y0503933D02*
X0597600Y0503933D01*
X0597600Y0513933D02*
X0602400Y0513933D01*
X0602400Y0523933D02*
X0597600Y0523933D01*
X0597600Y0533933D02*
X0602400Y0533933D01*
X0602400Y0543933D02*
X0597600Y0543933D01*
X0597600Y0553933D02*
X0602400Y0553933D01*
X0807600Y0543933D02*
X0812400Y0543933D01*
X0812400Y0533933D02*
X0807600Y0533933D01*
X0807600Y0523933D02*
X0812400Y0523933D01*
X0812400Y0513933D02*
X0807600Y0513933D01*
X0807600Y0503933D02*
X0812400Y0503933D01*
X0812400Y0493933D02*
X0807600Y0493933D01*
X0807600Y0483933D02*
X0812400Y0483933D01*
X0812400Y0473933D02*
X0807600Y0473933D01*
X0807600Y0463933D02*
X0812400Y0463933D01*
X0812400Y0453933D02*
X0807600Y0453933D01*
X0807600Y0443933D02*
X0812400Y0443933D01*
X0812400Y0433933D02*
X0807600Y0433933D01*
X0807600Y0423933D02*
X0812400Y0423933D01*
X0812400Y0413933D02*
X0807600Y0413933D01*
X0867600Y0413933D02*
X0872400Y0413933D01*
X0872400Y0423933D02*
X0867600Y0423933D01*
X0867600Y0433933D02*
X0872400Y0433933D01*
X0872400Y0443933D02*
X0867600Y0443933D01*
X0867600Y0453933D02*
X0872400Y0453933D01*
X0872400Y0463933D02*
X0867600Y0463933D01*
X0867600Y0473933D02*
X0872400Y0473933D01*
X0872400Y0483933D02*
X0867600Y0483933D01*
X0867600Y0493933D02*
X0872400Y0493933D01*
X0872400Y0503933D02*
X0867600Y0503933D01*
X0867600Y0513933D02*
X0872400Y0513933D01*
X0872400Y0523933D02*
X0867600Y0523933D01*
X0867600Y0533933D02*
X0872400Y0533933D01*
X0872400Y0543933D02*
X0867600Y0543933D01*
D12*
X1270000Y0823933D03*
X1280000Y0823933D03*
X1290000Y0823933D03*
X1300000Y0823933D03*
X1310000Y0823933D03*
X1310000Y0883933D03*
X1300000Y0883933D03*
X1290000Y0883933D03*
X1280000Y0883933D03*
X1270000Y0883933D03*
D13*
X0530000Y0356933D02*
X0530000Y0350933D01*
X0520000Y0350933D02*
X0520000Y0356933D01*
X0510000Y0356933D02*
X0510000Y0350933D01*
X0510000Y0276933D02*
X0510000Y0270933D01*
X0500000Y0270933D02*
X0500000Y0276933D01*
X0520000Y0276933D02*
X0520000Y0270933D01*
X0530000Y0270933D02*
X0530000Y0276933D01*
X0540000Y0276933D02*
X0540000Y0270933D01*
X0550000Y0270933D02*
X0550000Y0276933D01*
X0560000Y0276933D02*
X0560000Y0270933D01*
X0570000Y0270933D02*
X0570000Y0276933D01*
X0580000Y0276933D02*
X0580000Y0270933D01*
X0590000Y0270933D02*
X0590000Y0276933D01*
X0600000Y0276933D02*
X0600000Y0270933D01*
X0610000Y0270933D02*
X0610000Y0276933D01*
X0620000Y0276933D02*
X0620000Y0270933D01*
X0630000Y0270933D02*
X0630000Y0276933D01*
X0640000Y0276933D02*
X0640000Y0270933D01*
X0650000Y0270933D02*
X0650000Y0276933D01*
X0660000Y0276933D02*
X0660000Y0270933D01*
X0670000Y0270933D02*
X0670000Y0276933D01*
X1175000Y0036933D02*
X1175000Y0030933D01*
X1185000Y0030933D02*
X1185000Y0036933D01*
X1195000Y0036933D02*
X1195000Y0030933D01*
X1205000Y0030933D02*
X1205000Y0036933D01*
X1215000Y0036933D02*
X1215000Y0030933D01*
X1225000Y0030933D02*
X1225000Y0036933D01*
X1235000Y0036933D02*
X1235000Y0030933D01*
X1245000Y0030933D02*
X1245000Y0036933D01*
D14*
X1330512Y0053618D03*
X1094291Y0053618D03*
X1094291Y0285902D03*
X1330512Y0285902D03*
X0470472Y0273933D03*
D15*
X0470472Y0057398D03*
X0836614Y0057398D03*
X0836614Y0273933D03*
D16*
X0725500Y0409433D03*
X0695500Y0409433D03*
X0695500Y0439433D03*
X0725500Y0439433D03*
D17*
X0490000Y0691433D03*
X0470000Y0691433D03*
X0470000Y0761433D03*
X0490000Y0761433D03*
D18*
X0491331Y0869622D02*
X0478669Y0869622D01*
X0466102Y0875102D02*
X0466102Y0887764D01*
X0478669Y0893244D02*
X0491331Y0893244D01*
D19*
X0490625Y0827433D02*
X0479375Y0827433D01*
X0479375Y0808933D02*
X0490625Y0808933D01*
X0490625Y0790433D02*
X0479375Y0790433D01*
D20*
X0586142Y0880685D02*
X0586142Y0886591D01*
X0603858Y0886591D02*
X0603858Y0880685D01*
X0603858Y0906276D02*
X0603858Y0912181D01*
X0586142Y0912181D02*
X0586142Y0906276D01*
D21*
X0510000Y0848933D03*
X0520000Y0818933D03*
X0505000Y0793933D03*
X0460000Y0823933D03*
X0545000Y0833933D03*
X0590000Y0823933D03*
X0600000Y0808933D03*
X0625000Y0838933D03*
X0650000Y0823933D03*
X0705000Y0813933D03*
X0705000Y0838933D03*
X0875000Y0803933D03*
X1085000Y0803933D03*
X1165000Y0798933D03*
X1165000Y0768933D03*
X1220000Y0758933D03*
X1230000Y0773933D03*
X1250000Y0758933D03*
X1230000Y0733933D03*
X1210000Y0733933D03*
X1250000Y0678933D03*
X1165000Y0678933D03*
X1165000Y0628933D03*
X1085000Y0578933D03*
X1160000Y0538933D03*
X1165000Y0558933D03*
X1030000Y0633933D03*
X0875000Y0583933D03*
X0755000Y0603933D03*
X0715000Y0603933D03*
X0715000Y0643933D03*
X0630000Y0568933D03*
X0725000Y0553933D03*
X0585000Y0443933D03*
X0585000Y0403933D03*
X0515000Y0443933D03*
X0500000Y0363933D03*
X0490000Y0353933D03*
X0475000Y0308933D03*
X0510000Y0308933D03*
X0670000Y0293933D03*
X0745000Y0293933D03*
X0745000Y0398933D03*
X0490000Y0573933D03*
X0515000Y0598933D03*
X0460000Y0673933D03*
X0505000Y0708933D03*
X1030000Y0398933D03*
X1115000Y0398933D03*
X1290000Y0783933D03*
X1220000Y0868933D03*
X1195000Y0878933D03*
X1165000Y0878933D03*
D22*
X1175000Y0873933D03*
X1170000Y0868933D03*
X1135000Y0848933D03*
X1140000Y0838933D03*
X1145000Y0828933D03*
X1150000Y0818933D03*
X1180000Y0838933D03*
X1235000Y0828933D03*
X1240000Y0818933D03*
X1245000Y0808933D03*
X1255000Y0813933D03*
X1255000Y0798933D03*
X1220000Y0748933D03*
X1220000Y0743933D03*
X1225000Y0728933D03*
X1230000Y0708933D03*
X1245000Y0708933D03*
X1255000Y0718933D03*
X1240000Y0698933D03*
X1235000Y0683933D03*
X1240000Y0668933D03*
X1235000Y0663933D03*
X1245000Y0658933D03*
X1250000Y0653933D03*
X1255000Y0658933D03*
X1235000Y0643933D03*
X1240000Y0633933D03*
X1230000Y0628933D03*
X1230000Y0608933D03*
X1260000Y0628933D03*
X1290000Y0633933D03*
X1300000Y0628933D03*
X1310000Y0628933D03*
X1310000Y0623933D03*
X1315000Y0643933D03*
X1310000Y0648933D03*
X1305000Y0663933D03*
X1305000Y0668933D03*
X1295000Y0663933D03*
X1290000Y0663933D03*
X1290000Y0673933D03*
X1270000Y0658933D03*
X1185000Y0703933D03*
X1170000Y0723933D03*
X1155000Y0713933D03*
X1135000Y0703933D03*
X1125000Y0698933D03*
X1130000Y0688933D03*
X1135000Y0678933D03*
X1140000Y0668933D03*
X1145000Y0658933D03*
X1150000Y0643933D03*
X1175000Y0663933D03*
X1115000Y0693933D03*
X1150000Y0728933D03*
X1145000Y0733933D03*
X1180000Y0753933D03*
X1205000Y0753933D03*
X1155000Y0788933D03*
X1115000Y0783933D03*
X1230000Y0863933D03*
X1225000Y0883933D03*
X1235000Y0888933D03*
X1260000Y0873933D03*
X1330000Y0883933D03*
X1340000Y0828933D03*
X1335000Y0823933D03*
X1325000Y0758933D03*
X1315000Y0748933D03*
X1345000Y0738933D03*
X1130000Y0608933D03*
X1125000Y0598933D03*
X1140000Y0588933D03*
X1145000Y0578933D03*
X1155000Y0568933D03*
X1115000Y0578933D03*
X1115000Y0613933D03*
X1105000Y0623933D03*
X1005000Y0643933D03*
X0995000Y0653933D03*
X0990000Y0658933D03*
X0985000Y0663933D03*
X0980000Y0668933D03*
X0975000Y0673933D03*
X0970000Y0678933D03*
X0965000Y0683933D03*
X0960000Y0688933D03*
X0955000Y0698933D03*
X0950000Y0703933D03*
X0945000Y0708933D03*
X0935000Y0718933D03*
X0930000Y0723933D03*
X0925000Y0728933D03*
X0920000Y0733933D03*
X0915000Y0738933D03*
X0910000Y0743933D03*
X0905000Y0748933D03*
X0900000Y0753933D03*
X0895000Y0758933D03*
X0885000Y0768933D03*
X0880000Y0778933D03*
X0800000Y0728933D03*
X0795000Y0733933D03*
X0795000Y0743933D03*
X0785000Y0753933D03*
X0770000Y0738933D03*
X0765000Y0743933D03*
X0760000Y0753933D03*
X0755000Y0763933D03*
X0750000Y0773933D03*
X0775000Y0723933D03*
X0770000Y0713933D03*
X0765000Y0703933D03*
X0760000Y0693933D03*
X0755000Y0683933D03*
X0730000Y0678933D03*
X0725000Y0673933D03*
X0705000Y0668933D03*
X0700000Y0663933D03*
X0695000Y0658933D03*
X0690000Y0653933D03*
X0685000Y0648933D03*
X0690000Y0643933D03*
X0685000Y0638933D03*
X0680000Y0633933D03*
X0675000Y0628933D03*
X0670000Y0623933D03*
X0665000Y0618933D03*
X0725000Y0588933D03*
X0730000Y0583933D03*
X0720000Y0573933D03*
X0705000Y0543933D03*
X0685000Y0533933D03*
X0690000Y0513933D03*
X0680000Y0508933D03*
X0685000Y0498933D03*
X0680000Y0483933D03*
X0670000Y0493933D03*
X0655000Y0503933D03*
X0645000Y0503933D03*
X0640000Y0488933D03*
X0650000Y0463933D03*
X0640000Y0453933D03*
X0675000Y0463933D03*
X0645000Y0523933D03*
X0590000Y0543933D03*
X0585000Y0533933D03*
X0565000Y0523933D03*
X0580000Y0473933D03*
X0575000Y0413933D03*
X0570000Y0413933D03*
X0545000Y0388933D03*
X0540000Y0378933D03*
X0590000Y0378933D03*
X0590000Y0373933D03*
X0590000Y0368933D03*
X0590000Y0363933D03*
X0590000Y0358933D03*
X0590000Y0353933D03*
X0590000Y0348933D03*
X0580000Y0323933D03*
X0590000Y0318933D03*
X0600000Y0313933D03*
X0610000Y0308933D03*
X0620000Y0303933D03*
X0630000Y0298933D03*
X0570000Y0328933D03*
X0560000Y0333933D03*
X0590000Y0383933D03*
X0760000Y0338933D03*
X0765000Y0333933D03*
X0770000Y0328933D03*
X0785000Y0303933D03*
X0805000Y0373933D03*
X0775000Y0423933D03*
X0770000Y0433933D03*
X0765000Y0443933D03*
X0775000Y0458933D03*
X0790000Y0448933D03*
X0790000Y0478933D03*
X0785000Y0488933D03*
X0800000Y0508933D03*
X0800000Y0523933D03*
X0780000Y0518933D03*
X0775000Y0528933D03*
X0770000Y0538933D03*
X0785000Y0548933D03*
X0780000Y0593933D03*
X0780000Y0598933D03*
X0785000Y0608933D03*
X0775000Y0613933D03*
X0780000Y0618933D03*
X0785000Y0623933D03*
X0790000Y0628933D03*
X0805000Y0633933D03*
X0855000Y0618933D03*
X0890000Y0608933D03*
X0855000Y0578933D03*
X0890000Y0548933D03*
X0895000Y0538933D03*
X0900000Y0528933D03*
X0905000Y0523933D03*
X0910000Y0518933D03*
X0915000Y0513933D03*
X0920000Y0508933D03*
X0925000Y0503933D03*
X0930000Y0498933D03*
X0935000Y0493933D03*
X0940000Y0488933D03*
X0945000Y0483933D03*
X0950000Y0478933D03*
X0955000Y0473933D03*
X0960000Y0468933D03*
X0965000Y0458933D03*
X0970000Y0453933D03*
X0975000Y0448933D03*
X0980000Y0443933D03*
X0985000Y0438933D03*
X0990000Y0433933D03*
X0995000Y0428933D03*
X1000000Y0423933D03*
X1010000Y0413933D03*
X1115000Y0463933D03*
X1140000Y0478933D03*
X1145000Y0488933D03*
X1125000Y0508933D03*
X1130000Y0513933D03*
X1135000Y0518933D03*
X1150000Y0523933D03*
X1220000Y0523933D03*
X1225000Y0518933D03*
X1230000Y0513933D03*
X1235000Y0508933D03*
X1240000Y0558933D03*
X1340000Y0573933D03*
X1345000Y0578933D03*
X1335000Y0463933D03*
X1340000Y0458933D03*
X1345000Y0398933D03*
X1245000Y0373933D03*
X1250000Y0443933D03*
X1070000Y0328933D03*
X1065000Y0328933D03*
X1060000Y0328933D03*
X1055000Y0328933D03*
X1050000Y0328933D03*
X1045000Y0328933D03*
X1040000Y0328933D03*
X1035000Y0328933D03*
X0940000Y0308933D03*
X0930000Y0313933D03*
X0920000Y0318933D03*
X0910000Y0323933D03*
X0900000Y0328933D03*
X1225000Y0303933D03*
X1070000Y0088933D03*
X1070000Y0083933D03*
X1070000Y0078933D03*
X1070000Y0073933D03*
X1070000Y0068933D03*
X1070000Y0063933D03*
X1070000Y0058933D03*
X1070000Y0053933D03*
X0945000Y0568933D03*
X0890000Y0693933D03*
X0790000Y0708933D03*
X0740000Y0608933D03*
X0765000Y0598933D03*
X0590000Y0583933D03*
X0585000Y0578933D03*
X0580000Y0588933D03*
X0575000Y0673933D03*
X0570000Y0683933D03*
X0565000Y0693933D03*
X0560000Y0713933D03*
X0555000Y0723933D03*
X0550000Y0733933D03*
X0545000Y0743933D03*
X0540000Y0753933D03*
X0535000Y0763933D03*
X0530000Y0773933D03*
X0525000Y0783933D03*
D23*
X0475000Y0608933D03*
X0475000Y0418933D03*
M02*
