%
M48
M72
T01C0.0197
T02C0.0315
T03C0.0320
T04C0.0354
T05C0.0394
T06C0.0400
T07C0.0472
T08C0.0600
T09C0.0750
T10C0.0866
T11C0.0984
T12C0.1102
%
T01
X54000Y37893
X54500Y38893
X57000Y41393
X57500Y41393
X59000Y38393
X59000Y37893
X59000Y37393
X59000Y36893
X59000Y36393
X59000Y35893
X59000Y35393
X59000Y34893
X58000Y32393
X59000Y31893
X60000Y31393
X61000Y30893
X62000Y30393
X63000Y29893
X57000Y32893
X56000Y33393
X64000Y45393
X65000Y46393
X67500Y46393
X68000Y48393
X67000Y49393
X68500Y49893
X68000Y50893
X69000Y51393
X68500Y53393
X70500Y54393
X72000Y57393
X73000Y58393
X72500Y58893
X74000Y60893
X76500Y59893
X78000Y59893
X78000Y59393
X78500Y60893
X77500Y61393
X78000Y61893
X78500Y62393
X79000Y62893
X80500Y63393
X85500Y61893
X89000Y60893
X85500Y57893
X89000Y54893
X89500Y53893
X90000Y52893
X90500Y52393
X91000Y51893
X91500Y51393
X92000Y50893
X92500Y50393
X93000Y49893
X93500Y49393
X94000Y48893
X94500Y48393
X95000Y47893
X95500Y47393
X96000Y46893
X96500Y45893
X97000Y45393
X97500Y44893
X98000Y44393
X98500Y43893
X99000Y43393
X99500Y42893
X100000Y42393
X101000Y41393
X111500Y46393
X114000Y47893
X114500Y48893
X112500Y50893
X113000Y51393
X113500Y51893
X115000Y52393
X115500Y56893
X114500Y57893
X114000Y58893
X112500Y59893
X113000Y60893
X111500Y61393
X110500Y62393
X114500Y65893
X114000Y66893
X113500Y67893
X113000Y68893
X112500Y69893
X111500Y69393
X113500Y70393
X115500Y71393
X117000Y72393
X115000Y72893
X114500Y73393
X118000Y75393
X120500Y75393
X122000Y74893
X122000Y74393
X122500Y72893
X123000Y70893
X124500Y70893
X125500Y71893
X124000Y69893
X123500Y68393
X124000Y66893
X123500Y66393
X124500Y65893
X125000Y65393
X125500Y65893
X123500Y64393
X124000Y63393
X123000Y62893
X123000Y60893
X126000Y62893
X129000Y63393
X130000Y62893
X131000Y62893
X131000Y62393
X131500Y64393
X131000Y64893
X130500Y66393
X130500Y66893
X129500Y66393
X129000Y66393
X129000Y67393
X127000Y65893
X118500Y70393
X117500Y66393
X115000Y64393
X111500Y57893
X122000Y52393
X122500Y51893
X123000Y51393
X123500Y50893
X124000Y55893
X134000Y57393
X134500Y57893
X133500Y46393
X134000Y45893
X134500Y39893
X124500Y37393
X125000Y44393
X107000Y32893
X106500Y32893
X106000Y32893
X105500Y32893
X105000Y32893
X104500Y32893
X104000Y32893
X103500Y32893
X94000Y30893
X93000Y31393
X92000Y31893
X91000Y32393
X90000Y32893
X80500Y37393
X76500Y33393
X77000Y32893
X76000Y33893
X78500Y30393
X77500Y42393
X77000Y43393
X76500Y44393
X77500Y45893
X79000Y44893
X79000Y47893
X78500Y48893
X80000Y50893
X80000Y52393
X78000Y51893
X77500Y52893
X77000Y53893
X78500Y54893
X68500Y63893
X68000Y63393
X67500Y62893
X67000Y62393
X66500Y61893
X69000Y64393
X68500Y64893
X69000Y65393
X69500Y65893
X70000Y66393
X70500Y66893
X72500Y67393
X73000Y67893
X75500Y68393
X76000Y69393
X76500Y70393
X77000Y71393
X77500Y72393
X79000Y70893
X80000Y72893
X79500Y73393
X79500Y74393
X78500Y75393
X77000Y73893
X76500Y74393
X76000Y75393
X75500Y76393
X75000Y77393
X88000Y77893
X88500Y76893
X89500Y75893
X90000Y75393
X90500Y74893
X91000Y74393
X91500Y73893
X92000Y73393
X92500Y72893
X93000Y72393
X93500Y71893
X94500Y70893
X95000Y70393
X95500Y69893
X96000Y68893
X96500Y68393
X97000Y67893
X97500Y67393
X98000Y66893
X98500Y66393
X99000Y65893
X99500Y65393
X100500Y64393
X94500Y56893
X89000Y69393
X111500Y78393
X115500Y78893
X115000Y81893
X114500Y82893
X114000Y83893
X113500Y84893
X117000Y86893
X117500Y87393
X118000Y83893
X123500Y82893
X124000Y81893
X124500Y80893
X125500Y81393
X125500Y79893
X131500Y74893
X132500Y75893
X134500Y73893
X133500Y82393
X134000Y82893
X133000Y88393
X126000Y87393
X123500Y88893
X122500Y88393
X123000Y86393
X65500Y50393
X64500Y50393
X64000Y48893
X64500Y52393
X59000Y54393
X58500Y53393
X56500Y52393
X58000Y47393
X58500Y57893
X59000Y58393
X58000Y58893
X57500Y67393
X57000Y68393
X56500Y69393
X56000Y71393
X55500Y72393
X55000Y73393
X54500Y74393
X54000Y75393
X53500Y76393
X53000Y77393
X52500Y78393
X122500Y30393
X107000Y8893
X107000Y8393
X107000Y7893
X107000Y7393
X107000Y6893
X107000Y6393
X107000Y5893
X107000Y5393
T02
X127000Y82393
X128000Y82393
X129000Y82393
X130000Y82393
X131000Y82393
X131000Y88393
X130000Y88393
X129000Y88393
X128000Y88393
X127000Y88393
T03
X122000Y85893
X122000Y84893
X122000Y83893
X122000Y82893
X122000Y81893
X122000Y80893
X122000Y79893
X122000Y78893
X122000Y77893
X122000Y76893
X119000Y76893
X119000Y77893
X119000Y78893
X119000Y79893
X119000Y80893
X119000Y81893
X119000Y82893
X119000Y83893
X119000Y84893
X119000Y85893
X118000Y90393
X117000Y90393
X120000Y90393
X120500Y91143
X121000Y90393
X106500Y82393
X105500Y82393
X103000Y77393
X103000Y76393
X103000Y75393
X103000Y74393
X103000Y73393
X103000Y72393
X103000Y71393
X103000Y70393
X103000Y69393
X103000Y68393
X103000Y67393
X103000Y66393
X103000Y65393
X103000Y64393
X109000Y64393
X109000Y65393
X109000Y66393
X109000Y67393
X109000Y68393
X109000Y69393
X109000Y70393
X109000Y71393
X109000Y72393
X109000Y73393
X109000Y74393
X109000Y75393
X109000Y76393
X109000Y77393
X120000Y74393
X121000Y74393
X127500Y73893
X127500Y72893
X127500Y71893
X127500Y70893
X127500Y69893
X127500Y68893
X127500Y67893
X130500Y67893
X130500Y68893
X130500Y69893
X130500Y70893
X130500Y71893
X130500Y72893
X130500Y73893
X130500Y74893
X130500Y75893
X130500Y76893
X127500Y76893
X127500Y75893
X127500Y74893
X128500Y64893
X129500Y64893
X130500Y61893
X127500Y61893
X127500Y57893
X127500Y55893
X130500Y55893
X130500Y57893
X130500Y51893
X130500Y50393
X127500Y50393
X127500Y51893
X127500Y46393
X130500Y46393
X130500Y44393
X127500Y44393
X127500Y40393
X130500Y40393
X120000Y53893
X119000Y53893
X118000Y55893
X118000Y56893
X118000Y57893
X118000Y58893
X118000Y59893
X118000Y60893
X118000Y61893
X118000Y62893
X118000Y63893
X121000Y63893
X121000Y62893
X121000Y61893
X121000Y60893
X121000Y59893
X121000Y58893
X121000Y57893
X121000Y56893
X121000Y55893
X109000Y54393
X109000Y53393
X109000Y52393
X109000Y51393
X109000Y50393
X109000Y49393
X109000Y48393
X109000Y47393
X109000Y46393
X109000Y45393
X109000Y44393
X109000Y43393
X109000Y42393
X109000Y41393
X103000Y41393
X103000Y42393
X103000Y43393
X103000Y44393
X103000Y45393
X103000Y46393
X103000Y47393
X103000Y48393
X103000Y49393
X103000Y50393
X103000Y51393
X103000Y52393
X103000Y53393
X103000Y54393
X87000Y54393
X87000Y53393
X87000Y52393
X87000Y51393
X87000Y50393
X87000Y49393
X87000Y48393
X87000Y47393
X87000Y46393
X87000Y45393
X87000Y44393
X87000Y43393
X87000Y42393
X87000Y41393
X81000Y41393
X81000Y42393
X81000Y43393
X81000Y44393
X81000Y45393
X81000Y46393
X81000Y47393
X81000Y48393
X81000Y49393
X81000Y50393
X81000Y51393
X81000Y52393
X81000Y53393
X81000Y54393
X75500Y56893
X74500Y56893
X65000Y59893
X65000Y60893
X65000Y61893
X65000Y62893
X65000Y63893
X65000Y64893
X65000Y65893
X65000Y66893
X65000Y67893
X65000Y68893
X65000Y69893
X65000Y70893
X65000Y71893
X65000Y72893
X65000Y73893
X65000Y74893
X65000Y75893
X65000Y76893
X65000Y77893
X65000Y78893
X71000Y78893
X71000Y77893
X71000Y76893
X71000Y75893
X71000Y74893
X71000Y73893
X71000Y72893
X71000Y71893
X71000Y70893
X71000Y69893
X74000Y69893
X74000Y70893
X74000Y71893
X74000Y72893
X74000Y73893
X74000Y74893
X74000Y75893
X74000Y76893
X74000Y77893
X74000Y78893
X81000Y77393
X81000Y76393
X81000Y75393
X81000Y74393
X81000Y73393
X81000Y72393
X81000Y71393
X81000Y70393
X81000Y69393
X81000Y68393
X81000Y67393
X81000Y66393
X81000Y65393
X81000Y64393
X87000Y64393
X87000Y65393
X87000Y66393
X87000Y67393
X87000Y68393
X87000Y69393
X87000Y70393
X87000Y71393
X87000Y72393
X87000Y73393
X87000Y74393
X87000Y75393
X87000Y76393
X87000Y77393
X84500Y82393
X83500Y82393
X62500Y86893
X60000Y86143
X59000Y86143
X53750Y87393
X53250Y89893
X54250Y89893
X62500Y90893
X53750Y83393
X59000Y78893
X59000Y77893
X59000Y76893
X59000Y75893
X59000Y74893
X59000Y73893
X59000Y72893
X59000Y71893
X59000Y70893
X59000Y69893
X59000Y68893
X59000Y67893
X59000Y66893
X59000Y65893
X59000Y64893
X59000Y63893
X59000Y62893
X59000Y61893
X59000Y60893
X59000Y59893
X60000Y55393
X60000Y54393
X60000Y53393
X60000Y52393
X60000Y51393
X60000Y50393
X60000Y49393
X60000Y48393
X60000Y47393
X60000Y46393
X60000Y45393
X60000Y44393
X61000Y42393
X62000Y42393
X63000Y44393
X63000Y45393
X63000Y46393
X63000Y47393
X63000Y48393
X63000Y49393
X63000Y50393
X63000Y51393
X63000Y52393
X63000Y53393
X63000Y54393
X63000Y55393
X66500Y44393
X66500Y43393
X48500Y32393
X47500Y32393
X109000Y35893
X110000Y35893
T04
X47500Y41893
X47500Y60893
T05
X58614Y88364
X60386Y88364
X60386Y90923
X58614Y90923
T06
X69550Y43943
X72550Y43943
X72550Y40943
X69550Y40943
X53000Y35393
X52000Y35393
X51000Y35393
X51000Y27393
X50000Y27393
X52000Y27393
X53000Y27393
X54000Y27393
X55000Y27393
X56000Y27393
X57000Y27393
X58000Y27393
X59000Y27393
X60000Y27393
X61000Y27393
X62000Y27393
X63000Y27393
X64000Y27393
X65000Y27393
X66000Y27393
X67000Y27393
X117500Y3393
X118500Y3393
X119500Y3393
X120500Y3393
X121500Y3393
X122500Y3393
X123500Y3393
X124500Y3393
T07
X74500Y29393
X67000Y29393
X74500Y39893
X58500Y40393
X58500Y44393
X51500Y44393
X50000Y36393
X49000Y35393
X47500Y30893
X51000Y30893
X72500Y55393
X71500Y60393
X75500Y60393
X71500Y64393
X63000Y56893
X51500Y59893
X49000Y57393
X46000Y67393
X50500Y70893
X50500Y79393
X52000Y81893
X54500Y83393
X51000Y84893
X46000Y82393
X59000Y82393
X60000Y80893
X62500Y83893
X65000Y82393
X70500Y81393
X70500Y83893
X87500Y80393
X108500Y80393
X116500Y79893
X116500Y76893
X122000Y75893
X123000Y77393
X125000Y75893
X123000Y73393
X121000Y73393
X125000Y67893
X116500Y67893
X116500Y62893
X108500Y57893
X116000Y53893
X116500Y55893
X103000Y63393
X87500Y58393
X103000Y39893
X111500Y39893
X129000Y78393
X122000Y86893
X119500Y87893
X116500Y87893
T08
X49000Y76143
X47000Y76143
X47000Y69143
X49000Y69143
T09
X48500Y79043
X48500Y80893
X48500Y82743
T10
X48500Y86962
X46610Y88143
X48500Y89324
T11
X109429Y28590
X133051Y28590
X133051Y5362
X109429Y5362
X47047Y27393
T12
X47047Y5740
X83661Y5740
X83661Y27393
M30
