G75*
%MOIN*%
%OFA0B0*%
%FSLAX25Y25*%
%IPPOS*%
%LPD*%
%AMOC8*
5,1,8,0,0,1.08239X$1,22.5*
%
%ADD10C,0.00000*%
%ADD11OC8,0.04800*%
%ADD12C,0.04800*%
%ADD13C,0.04724*%
%ADD14C,0.06000*%
%ADD15C,0.06000*%
%ADD16OC8,0.15000*%
%ADD17C,0.12661*%
%ADD18C,0.11250*%
%ADD19C,0.05906*%
%ADD20C,0.05000*%
%ADD21C,0.07087*%
%ADD22C,0.03369*%
%ADD23C,0.01200*%
%ADD24C,0.05315*%
%ADD25C,0.03200*%
D10*
X0450000Y0023933D02*
X0450000Y0923933D01*
X1350000Y0923933D01*
X1350000Y0023933D01*
X0450000Y0023933D01*
X0464960Y0057398D02*
X0464962Y0057546D01*
X0464968Y0057694D01*
X0464978Y0057842D01*
X0464992Y0057989D01*
X0465010Y0058136D01*
X0465031Y0058282D01*
X0465057Y0058428D01*
X0465087Y0058573D01*
X0465120Y0058717D01*
X0465158Y0058860D01*
X0465199Y0059002D01*
X0465244Y0059143D01*
X0465292Y0059283D01*
X0465345Y0059422D01*
X0465401Y0059559D01*
X0465461Y0059694D01*
X0465524Y0059828D01*
X0465591Y0059960D01*
X0465662Y0060090D01*
X0465736Y0060218D01*
X0465813Y0060344D01*
X0465894Y0060468D01*
X0465978Y0060590D01*
X0466065Y0060709D01*
X0466156Y0060826D01*
X0466250Y0060941D01*
X0466346Y0061053D01*
X0466446Y0061163D01*
X0466548Y0061269D01*
X0466654Y0061373D01*
X0466762Y0061474D01*
X0466873Y0061572D01*
X0466986Y0061668D01*
X0467102Y0061760D01*
X0467220Y0061849D01*
X0467341Y0061934D01*
X0467464Y0062017D01*
X0467589Y0062096D01*
X0467716Y0062172D01*
X0467845Y0062244D01*
X0467976Y0062313D01*
X0468109Y0062378D01*
X0468244Y0062439D01*
X0468380Y0062497D01*
X0468517Y0062552D01*
X0468656Y0062602D01*
X0468797Y0062649D01*
X0468938Y0062692D01*
X0469081Y0062732D01*
X0469225Y0062767D01*
X0469369Y0062799D01*
X0469515Y0062826D01*
X0469661Y0062850D01*
X0469808Y0062870D01*
X0469955Y0062886D01*
X0470102Y0062898D01*
X0470250Y0062906D01*
X0470398Y0062910D01*
X0470546Y0062910D01*
X0470694Y0062906D01*
X0470842Y0062898D01*
X0470989Y0062886D01*
X0471136Y0062870D01*
X0471283Y0062850D01*
X0471429Y0062826D01*
X0471575Y0062799D01*
X0471719Y0062767D01*
X0471863Y0062732D01*
X0472006Y0062692D01*
X0472147Y0062649D01*
X0472288Y0062602D01*
X0472427Y0062552D01*
X0472564Y0062497D01*
X0472700Y0062439D01*
X0472835Y0062378D01*
X0472968Y0062313D01*
X0473099Y0062244D01*
X0473228Y0062172D01*
X0473355Y0062096D01*
X0473480Y0062017D01*
X0473603Y0061934D01*
X0473724Y0061849D01*
X0473842Y0061760D01*
X0473958Y0061668D01*
X0474071Y0061572D01*
X0474182Y0061474D01*
X0474290Y0061373D01*
X0474396Y0061269D01*
X0474498Y0061163D01*
X0474598Y0061053D01*
X0474694Y0060941D01*
X0474788Y0060826D01*
X0474879Y0060709D01*
X0474966Y0060590D01*
X0475050Y0060468D01*
X0475131Y0060344D01*
X0475208Y0060218D01*
X0475282Y0060090D01*
X0475353Y0059960D01*
X0475420Y0059828D01*
X0475483Y0059694D01*
X0475543Y0059559D01*
X0475599Y0059422D01*
X0475652Y0059283D01*
X0475700Y0059143D01*
X0475745Y0059002D01*
X0475786Y0058860D01*
X0475824Y0058717D01*
X0475857Y0058573D01*
X0475887Y0058428D01*
X0475913Y0058282D01*
X0475934Y0058136D01*
X0475952Y0057989D01*
X0475966Y0057842D01*
X0475976Y0057694D01*
X0475982Y0057546D01*
X0475984Y0057398D01*
X0475982Y0057250D01*
X0475976Y0057102D01*
X0475966Y0056954D01*
X0475952Y0056807D01*
X0475934Y0056660D01*
X0475913Y0056514D01*
X0475887Y0056368D01*
X0475857Y0056223D01*
X0475824Y0056079D01*
X0475786Y0055936D01*
X0475745Y0055794D01*
X0475700Y0055653D01*
X0475652Y0055513D01*
X0475599Y0055374D01*
X0475543Y0055237D01*
X0475483Y0055102D01*
X0475420Y0054968D01*
X0475353Y0054836D01*
X0475282Y0054706D01*
X0475208Y0054578D01*
X0475131Y0054452D01*
X0475050Y0054328D01*
X0474966Y0054206D01*
X0474879Y0054087D01*
X0474788Y0053970D01*
X0474694Y0053855D01*
X0474598Y0053743D01*
X0474498Y0053633D01*
X0474396Y0053527D01*
X0474290Y0053423D01*
X0474182Y0053322D01*
X0474071Y0053224D01*
X0473958Y0053128D01*
X0473842Y0053036D01*
X0473724Y0052947D01*
X0473603Y0052862D01*
X0473480Y0052779D01*
X0473355Y0052700D01*
X0473228Y0052624D01*
X0473099Y0052552D01*
X0472968Y0052483D01*
X0472835Y0052418D01*
X0472700Y0052357D01*
X0472564Y0052299D01*
X0472427Y0052244D01*
X0472288Y0052194D01*
X0472147Y0052147D01*
X0472006Y0052104D01*
X0471863Y0052064D01*
X0471719Y0052029D01*
X0471575Y0051997D01*
X0471429Y0051970D01*
X0471283Y0051946D01*
X0471136Y0051926D01*
X0470989Y0051910D01*
X0470842Y0051898D01*
X0470694Y0051890D01*
X0470546Y0051886D01*
X0470398Y0051886D01*
X0470250Y0051890D01*
X0470102Y0051898D01*
X0469955Y0051910D01*
X0469808Y0051926D01*
X0469661Y0051946D01*
X0469515Y0051970D01*
X0469369Y0051997D01*
X0469225Y0052029D01*
X0469081Y0052064D01*
X0468938Y0052104D01*
X0468797Y0052147D01*
X0468656Y0052194D01*
X0468517Y0052244D01*
X0468380Y0052299D01*
X0468244Y0052357D01*
X0468109Y0052418D01*
X0467976Y0052483D01*
X0467845Y0052552D01*
X0467716Y0052624D01*
X0467589Y0052700D01*
X0467464Y0052779D01*
X0467341Y0052862D01*
X0467220Y0052947D01*
X0467102Y0053036D01*
X0466986Y0053128D01*
X0466873Y0053224D01*
X0466762Y0053322D01*
X0466654Y0053423D01*
X0466548Y0053527D01*
X0466446Y0053633D01*
X0466346Y0053743D01*
X0466250Y0053855D01*
X0466156Y0053970D01*
X0466065Y0054087D01*
X0465978Y0054206D01*
X0465894Y0054328D01*
X0465813Y0054452D01*
X0465736Y0054578D01*
X0465662Y0054706D01*
X0465591Y0054836D01*
X0465524Y0054968D01*
X0465461Y0055102D01*
X0465401Y0055237D01*
X0465345Y0055374D01*
X0465292Y0055513D01*
X0465244Y0055653D01*
X0465199Y0055794D01*
X0465158Y0055936D01*
X0465120Y0056079D01*
X0465087Y0056223D01*
X0465057Y0056368D01*
X0465031Y0056514D01*
X0465010Y0056660D01*
X0464992Y0056807D01*
X0464978Y0056954D01*
X0464968Y0057102D01*
X0464962Y0057250D01*
X0464960Y0057398D01*
X0465551Y0273933D02*
X0465553Y0274073D01*
X0465559Y0274213D01*
X0465569Y0274352D01*
X0465583Y0274491D01*
X0465601Y0274630D01*
X0465622Y0274768D01*
X0465648Y0274906D01*
X0465678Y0275043D01*
X0465711Y0275178D01*
X0465749Y0275313D01*
X0465790Y0275447D01*
X0465835Y0275580D01*
X0465883Y0275711D01*
X0465936Y0275840D01*
X0465992Y0275969D01*
X0466051Y0276095D01*
X0466115Y0276220D01*
X0466181Y0276343D01*
X0466252Y0276464D01*
X0466325Y0276583D01*
X0466402Y0276700D01*
X0466483Y0276814D01*
X0466566Y0276926D01*
X0466653Y0277036D01*
X0466743Y0277144D01*
X0466835Y0277248D01*
X0466931Y0277350D01*
X0467030Y0277450D01*
X0467131Y0277546D01*
X0467235Y0277640D01*
X0467342Y0277730D01*
X0467451Y0277817D01*
X0467563Y0277902D01*
X0467677Y0277983D01*
X0467793Y0278061D01*
X0467911Y0278135D01*
X0468032Y0278206D01*
X0468154Y0278274D01*
X0468279Y0278338D01*
X0468405Y0278399D01*
X0468532Y0278456D01*
X0468662Y0278509D01*
X0468793Y0278559D01*
X0468925Y0278604D01*
X0469058Y0278647D01*
X0469193Y0278685D01*
X0469328Y0278719D01*
X0469465Y0278750D01*
X0469602Y0278777D01*
X0469740Y0278799D01*
X0469879Y0278818D01*
X0470018Y0278833D01*
X0470157Y0278844D01*
X0470297Y0278851D01*
X0470437Y0278854D01*
X0470577Y0278853D01*
X0470717Y0278848D01*
X0470856Y0278839D01*
X0470996Y0278826D01*
X0471135Y0278809D01*
X0471273Y0278788D01*
X0471411Y0278764D01*
X0471548Y0278735D01*
X0471684Y0278703D01*
X0471819Y0278666D01*
X0471953Y0278626D01*
X0472086Y0278582D01*
X0472217Y0278534D01*
X0472347Y0278483D01*
X0472476Y0278428D01*
X0472603Y0278369D01*
X0472728Y0278306D01*
X0472851Y0278241D01*
X0472973Y0278171D01*
X0473092Y0278098D01*
X0473210Y0278022D01*
X0473325Y0277943D01*
X0473438Y0277860D01*
X0473548Y0277774D01*
X0473656Y0277685D01*
X0473761Y0277593D01*
X0473864Y0277498D01*
X0473964Y0277400D01*
X0474061Y0277300D01*
X0474155Y0277196D01*
X0474247Y0277090D01*
X0474335Y0276982D01*
X0474420Y0276871D01*
X0474502Y0276757D01*
X0474581Y0276641D01*
X0474656Y0276524D01*
X0474728Y0276404D01*
X0474796Y0276282D01*
X0474861Y0276158D01*
X0474923Y0276032D01*
X0474981Y0275905D01*
X0475035Y0275776D01*
X0475086Y0275645D01*
X0475132Y0275513D01*
X0475175Y0275380D01*
X0475215Y0275246D01*
X0475250Y0275111D01*
X0475282Y0274974D01*
X0475309Y0274837D01*
X0475333Y0274699D01*
X0475353Y0274561D01*
X0475369Y0274422D01*
X0475381Y0274282D01*
X0475389Y0274143D01*
X0475393Y0274003D01*
X0475393Y0273863D01*
X0475389Y0273723D01*
X0475381Y0273584D01*
X0475369Y0273444D01*
X0475353Y0273305D01*
X0475333Y0273167D01*
X0475309Y0273029D01*
X0475282Y0272892D01*
X0475250Y0272755D01*
X0475215Y0272620D01*
X0475175Y0272486D01*
X0475132Y0272353D01*
X0475086Y0272221D01*
X0475035Y0272090D01*
X0474981Y0271961D01*
X0474923Y0271834D01*
X0474861Y0271708D01*
X0474796Y0271584D01*
X0474728Y0271462D01*
X0474656Y0271342D01*
X0474581Y0271225D01*
X0474502Y0271109D01*
X0474420Y0270995D01*
X0474335Y0270884D01*
X0474247Y0270776D01*
X0474155Y0270670D01*
X0474061Y0270566D01*
X0473964Y0270466D01*
X0473864Y0270368D01*
X0473761Y0270273D01*
X0473656Y0270181D01*
X0473548Y0270092D01*
X0473438Y0270006D01*
X0473325Y0269923D01*
X0473210Y0269844D01*
X0473092Y0269768D01*
X0472973Y0269695D01*
X0472851Y0269625D01*
X0472728Y0269560D01*
X0472603Y0269497D01*
X0472476Y0269438D01*
X0472347Y0269383D01*
X0472217Y0269332D01*
X0472086Y0269284D01*
X0471953Y0269240D01*
X0471819Y0269200D01*
X0471684Y0269163D01*
X0471548Y0269131D01*
X0471411Y0269102D01*
X0471273Y0269078D01*
X0471135Y0269057D01*
X0470996Y0269040D01*
X0470856Y0269027D01*
X0470717Y0269018D01*
X0470577Y0269013D01*
X0470437Y0269012D01*
X0470297Y0269015D01*
X0470157Y0269022D01*
X0470018Y0269033D01*
X0469879Y0269048D01*
X0469740Y0269067D01*
X0469602Y0269089D01*
X0469465Y0269116D01*
X0469328Y0269147D01*
X0469193Y0269181D01*
X0469058Y0269219D01*
X0468925Y0269262D01*
X0468793Y0269307D01*
X0468662Y0269357D01*
X0468532Y0269410D01*
X0468405Y0269467D01*
X0468279Y0269528D01*
X0468154Y0269592D01*
X0468032Y0269660D01*
X0467911Y0269731D01*
X0467793Y0269805D01*
X0467677Y0269883D01*
X0467563Y0269964D01*
X0467451Y0270049D01*
X0467342Y0270136D01*
X0467235Y0270226D01*
X0467131Y0270320D01*
X0467030Y0270416D01*
X0466931Y0270516D01*
X0466835Y0270618D01*
X0466743Y0270722D01*
X0466653Y0270830D01*
X0466566Y0270940D01*
X0466483Y0271052D01*
X0466402Y0271166D01*
X0466325Y0271283D01*
X0466252Y0271402D01*
X0466181Y0271523D01*
X0466115Y0271646D01*
X0466051Y0271771D01*
X0465992Y0271897D01*
X0465936Y0272026D01*
X0465883Y0272155D01*
X0465835Y0272286D01*
X0465790Y0272419D01*
X0465749Y0272553D01*
X0465711Y0272688D01*
X0465678Y0272823D01*
X0465648Y0272960D01*
X0465622Y0273098D01*
X0465601Y0273236D01*
X0465583Y0273375D01*
X0465569Y0273514D01*
X0465559Y0273653D01*
X0465553Y0273793D01*
X0465551Y0273933D01*
X0831102Y0273933D02*
X0831104Y0274081D01*
X0831110Y0274229D01*
X0831120Y0274377D01*
X0831134Y0274524D01*
X0831152Y0274671D01*
X0831173Y0274817D01*
X0831199Y0274963D01*
X0831229Y0275108D01*
X0831262Y0275252D01*
X0831300Y0275395D01*
X0831341Y0275537D01*
X0831386Y0275678D01*
X0831434Y0275818D01*
X0831487Y0275957D01*
X0831543Y0276094D01*
X0831603Y0276229D01*
X0831666Y0276363D01*
X0831733Y0276495D01*
X0831804Y0276625D01*
X0831878Y0276753D01*
X0831955Y0276879D01*
X0832036Y0277003D01*
X0832120Y0277125D01*
X0832207Y0277244D01*
X0832298Y0277361D01*
X0832392Y0277476D01*
X0832488Y0277588D01*
X0832588Y0277698D01*
X0832690Y0277804D01*
X0832796Y0277908D01*
X0832904Y0278009D01*
X0833015Y0278107D01*
X0833128Y0278203D01*
X0833244Y0278295D01*
X0833362Y0278384D01*
X0833483Y0278469D01*
X0833606Y0278552D01*
X0833731Y0278631D01*
X0833858Y0278707D01*
X0833987Y0278779D01*
X0834118Y0278848D01*
X0834251Y0278913D01*
X0834386Y0278974D01*
X0834522Y0279032D01*
X0834659Y0279087D01*
X0834798Y0279137D01*
X0834939Y0279184D01*
X0835080Y0279227D01*
X0835223Y0279267D01*
X0835367Y0279302D01*
X0835511Y0279334D01*
X0835657Y0279361D01*
X0835803Y0279385D01*
X0835950Y0279405D01*
X0836097Y0279421D01*
X0836244Y0279433D01*
X0836392Y0279441D01*
X0836540Y0279445D01*
X0836688Y0279445D01*
X0836836Y0279441D01*
X0836984Y0279433D01*
X0837131Y0279421D01*
X0837278Y0279405D01*
X0837425Y0279385D01*
X0837571Y0279361D01*
X0837717Y0279334D01*
X0837861Y0279302D01*
X0838005Y0279267D01*
X0838148Y0279227D01*
X0838289Y0279184D01*
X0838430Y0279137D01*
X0838569Y0279087D01*
X0838706Y0279032D01*
X0838842Y0278974D01*
X0838977Y0278913D01*
X0839110Y0278848D01*
X0839241Y0278779D01*
X0839370Y0278707D01*
X0839497Y0278631D01*
X0839622Y0278552D01*
X0839745Y0278469D01*
X0839866Y0278384D01*
X0839984Y0278295D01*
X0840100Y0278203D01*
X0840213Y0278107D01*
X0840324Y0278009D01*
X0840432Y0277908D01*
X0840538Y0277804D01*
X0840640Y0277698D01*
X0840740Y0277588D01*
X0840836Y0277476D01*
X0840930Y0277361D01*
X0841021Y0277244D01*
X0841108Y0277125D01*
X0841192Y0277003D01*
X0841273Y0276879D01*
X0841350Y0276753D01*
X0841424Y0276625D01*
X0841495Y0276495D01*
X0841562Y0276363D01*
X0841625Y0276229D01*
X0841685Y0276094D01*
X0841741Y0275957D01*
X0841794Y0275818D01*
X0841842Y0275678D01*
X0841887Y0275537D01*
X0841928Y0275395D01*
X0841966Y0275252D01*
X0841999Y0275108D01*
X0842029Y0274963D01*
X0842055Y0274817D01*
X0842076Y0274671D01*
X0842094Y0274524D01*
X0842108Y0274377D01*
X0842118Y0274229D01*
X0842124Y0274081D01*
X0842126Y0273933D01*
X0842124Y0273785D01*
X0842118Y0273637D01*
X0842108Y0273489D01*
X0842094Y0273342D01*
X0842076Y0273195D01*
X0842055Y0273049D01*
X0842029Y0272903D01*
X0841999Y0272758D01*
X0841966Y0272614D01*
X0841928Y0272471D01*
X0841887Y0272329D01*
X0841842Y0272188D01*
X0841794Y0272048D01*
X0841741Y0271909D01*
X0841685Y0271772D01*
X0841625Y0271637D01*
X0841562Y0271503D01*
X0841495Y0271371D01*
X0841424Y0271241D01*
X0841350Y0271113D01*
X0841273Y0270987D01*
X0841192Y0270863D01*
X0841108Y0270741D01*
X0841021Y0270622D01*
X0840930Y0270505D01*
X0840836Y0270390D01*
X0840740Y0270278D01*
X0840640Y0270168D01*
X0840538Y0270062D01*
X0840432Y0269958D01*
X0840324Y0269857D01*
X0840213Y0269759D01*
X0840100Y0269663D01*
X0839984Y0269571D01*
X0839866Y0269482D01*
X0839745Y0269397D01*
X0839622Y0269314D01*
X0839497Y0269235D01*
X0839370Y0269159D01*
X0839241Y0269087D01*
X0839110Y0269018D01*
X0838977Y0268953D01*
X0838842Y0268892D01*
X0838706Y0268834D01*
X0838569Y0268779D01*
X0838430Y0268729D01*
X0838289Y0268682D01*
X0838148Y0268639D01*
X0838005Y0268599D01*
X0837861Y0268564D01*
X0837717Y0268532D01*
X0837571Y0268505D01*
X0837425Y0268481D01*
X0837278Y0268461D01*
X0837131Y0268445D01*
X0836984Y0268433D01*
X0836836Y0268425D01*
X0836688Y0268421D01*
X0836540Y0268421D01*
X0836392Y0268425D01*
X0836244Y0268433D01*
X0836097Y0268445D01*
X0835950Y0268461D01*
X0835803Y0268481D01*
X0835657Y0268505D01*
X0835511Y0268532D01*
X0835367Y0268564D01*
X0835223Y0268599D01*
X0835080Y0268639D01*
X0834939Y0268682D01*
X0834798Y0268729D01*
X0834659Y0268779D01*
X0834522Y0268834D01*
X0834386Y0268892D01*
X0834251Y0268953D01*
X0834118Y0269018D01*
X0833987Y0269087D01*
X0833858Y0269159D01*
X0833731Y0269235D01*
X0833606Y0269314D01*
X0833483Y0269397D01*
X0833362Y0269482D01*
X0833244Y0269571D01*
X0833128Y0269663D01*
X0833015Y0269759D01*
X0832904Y0269857D01*
X0832796Y0269958D01*
X0832690Y0270062D01*
X0832588Y0270168D01*
X0832488Y0270278D01*
X0832392Y0270390D01*
X0832298Y0270505D01*
X0832207Y0270622D01*
X0832120Y0270741D01*
X0832036Y0270863D01*
X0831955Y0270987D01*
X0831878Y0271113D01*
X0831804Y0271241D01*
X0831733Y0271371D01*
X0831666Y0271503D01*
X0831603Y0271637D01*
X0831543Y0271772D01*
X0831487Y0271909D01*
X0831434Y0272048D01*
X0831386Y0272188D01*
X0831341Y0272329D01*
X0831300Y0272471D01*
X0831262Y0272614D01*
X0831229Y0272758D01*
X0831199Y0272903D01*
X0831173Y0273049D01*
X0831152Y0273195D01*
X0831134Y0273342D01*
X0831120Y0273489D01*
X0831110Y0273637D01*
X0831104Y0273785D01*
X0831102Y0273933D01*
X1089370Y0285902D02*
X1089372Y0286042D01*
X1089378Y0286182D01*
X1089388Y0286321D01*
X1089402Y0286460D01*
X1089420Y0286599D01*
X1089441Y0286737D01*
X1089467Y0286875D01*
X1089497Y0287012D01*
X1089530Y0287147D01*
X1089568Y0287282D01*
X1089609Y0287416D01*
X1089654Y0287549D01*
X1089702Y0287680D01*
X1089755Y0287809D01*
X1089811Y0287938D01*
X1089870Y0288064D01*
X1089934Y0288189D01*
X1090000Y0288312D01*
X1090071Y0288433D01*
X1090144Y0288552D01*
X1090221Y0288669D01*
X1090302Y0288783D01*
X1090385Y0288895D01*
X1090472Y0289005D01*
X1090562Y0289113D01*
X1090654Y0289217D01*
X1090750Y0289319D01*
X1090849Y0289419D01*
X1090950Y0289515D01*
X1091054Y0289609D01*
X1091161Y0289699D01*
X1091270Y0289786D01*
X1091382Y0289871D01*
X1091496Y0289952D01*
X1091612Y0290030D01*
X1091730Y0290104D01*
X1091851Y0290175D01*
X1091973Y0290243D01*
X1092098Y0290307D01*
X1092224Y0290368D01*
X1092351Y0290425D01*
X1092481Y0290478D01*
X1092612Y0290528D01*
X1092744Y0290573D01*
X1092877Y0290616D01*
X1093012Y0290654D01*
X1093147Y0290688D01*
X1093284Y0290719D01*
X1093421Y0290746D01*
X1093559Y0290768D01*
X1093698Y0290787D01*
X1093837Y0290802D01*
X1093976Y0290813D01*
X1094116Y0290820D01*
X1094256Y0290823D01*
X1094396Y0290822D01*
X1094536Y0290817D01*
X1094675Y0290808D01*
X1094815Y0290795D01*
X1094954Y0290778D01*
X1095092Y0290757D01*
X1095230Y0290733D01*
X1095367Y0290704D01*
X1095503Y0290672D01*
X1095638Y0290635D01*
X1095772Y0290595D01*
X1095905Y0290551D01*
X1096036Y0290503D01*
X1096166Y0290452D01*
X1096295Y0290397D01*
X1096422Y0290338D01*
X1096547Y0290275D01*
X1096670Y0290210D01*
X1096792Y0290140D01*
X1096911Y0290067D01*
X1097029Y0289991D01*
X1097144Y0289912D01*
X1097257Y0289829D01*
X1097367Y0289743D01*
X1097475Y0289654D01*
X1097580Y0289562D01*
X1097683Y0289467D01*
X1097783Y0289369D01*
X1097880Y0289269D01*
X1097974Y0289165D01*
X1098066Y0289059D01*
X1098154Y0288951D01*
X1098239Y0288840D01*
X1098321Y0288726D01*
X1098400Y0288610D01*
X1098475Y0288493D01*
X1098547Y0288373D01*
X1098615Y0288251D01*
X1098680Y0288127D01*
X1098742Y0288001D01*
X1098800Y0287874D01*
X1098854Y0287745D01*
X1098905Y0287614D01*
X1098951Y0287482D01*
X1098994Y0287349D01*
X1099034Y0287215D01*
X1099069Y0287080D01*
X1099101Y0286943D01*
X1099128Y0286806D01*
X1099152Y0286668D01*
X1099172Y0286530D01*
X1099188Y0286391D01*
X1099200Y0286251D01*
X1099208Y0286112D01*
X1099212Y0285972D01*
X1099212Y0285832D01*
X1099208Y0285692D01*
X1099200Y0285553D01*
X1099188Y0285413D01*
X1099172Y0285274D01*
X1099152Y0285136D01*
X1099128Y0284998D01*
X1099101Y0284861D01*
X1099069Y0284724D01*
X1099034Y0284589D01*
X1098994Y0284455D01*
X1098951Y0284322D01*
X1098905Y0284190D01*
X1098854Y0284059D01*
X1098800Y0283930D01*
X1098742Y0283803D01*
X1098680Y0283677D01*
X1098615Y0283553D01*
X1098547Y0283431D01*
X1098475Y0283311D01*
X1098400Y0283194D01*
X1098321Y0283078D01*
X1098239Y0282964D01*
X1098154Y0282853D01*
X1098066Y0282745D01*
X1097974Y0282639D01*
X1097880Y0282535D01*
X1097783Y0282435D01*
X1097683Y0282337D01*
X1097580Y0282242D01*
X1097475Y0282150D01*
X1097367Y0282061D01*
X1097257Y0281975D01*
X1097144Y0281892D01*
X1097029Y0281813D01*
X1096911Y0281737D01*
X1096792Y0281664D01*
X1096670Y0281594D01*
X1096547Y0281529D01*
X1096422Y0281466D01*
X1096295Y0281407D01*
X1096166Y0281352D01*
X1096036Y0281301D01*
X1095905Y0281253D01*
X1095772Y0281209D01*
X1095638Y0281169D01*
X1095503Y0281132D01*
X1095367Y0281100D01*
X1095230Y0281071D01*
X1095092Y0281047D01*
X1094954Y0281026D01*
X1094815Y0281009D01*
X1094675Y0280996D01*
X1094536Y0280987D01*
X1094396Y0280982D01*
X1094256Y0280981D01*
X1094116Y0280984D01*
X1093976Y0280991D01*
X1093837Y0281002D01*
X1093698Y0281017D01*
X1093559Y0281036D01*
X1093421Y0281058D01*
X1093284Y0281085D01*
X1093147Y0281116D01*
X1093012Y0281150D01*
X1092877Y0281188D01*
X1092744Y0281231D01*
X1092612Y0281276D01*
X1092481Y0281326D01*
X1092351Y0281379D01*
X1092224Y0281436D01*
X1092098Y0281497D01*
X1091973Y0281561D01*
X1091851Y0281629D01*
X1091730Y0281700D01*
X1091612Y0281774D01*
X1091496Y0281852D01*
X1091382Y0281933D01*
X1091270Y0282018D01*
X1091161Y0282105D01*
X1091054Y0282195D01*
X1090950Y0282289D01*
X1090849Y0282385D01*
X1090750Y0282485D01*
X1090654Y0282587D01*
X1090562Y0282691D01*
X1090472Y0282799D01*
X1090385Y0282909D01*
X1090302Y0283021D01*
X1090221Y0283135D01*
X1090144Y0283252D01*
X1090071Y0283371D01*
X1090000Y0283492D01*
X1089934Y0283615D01*
X1089870Y0283740D01*
X1089811Y0283866D01*
X1089755Y0283995D01*
X1089702Y0284124D01*
X1089654Y0284255D01*
X1089609Y0284388D01*
X1089568Y0284522D01*
X1089530Y0284657D01*
X1089497Y0284792D01*
X1089467Y0284929D01*
X1089441Y0285067D01*
X1089420Y0285205D01*
X1089402Y0285344D01*
X1089388Y0285483D01*
X1089378Y0285622D01*
X1089372Y0285762D01*
X1089370Y0285902D01*
X1325591Y0285902D02*
X1325593Y0286042D01*
X1325599Y0286182D01*
X1325609Y0286321D01*
X1325623Y0286460D01*
X1325641Y0286599D01*
X1325662Y0286737D01*
X1325688Y0286875D01*
X1325718Y0287012D01*
X1325751Y0287147D01*
X1325789Y0287282D01*
X1325830Y0287416D01*
X1325875Y0287549D01*
X1325923Y0287680D01*
X1325976Y0287809D01*
X1326032Y0287938D01*
X1326091Y0288064D01*
X1326155Y0288189D01*
X1326221Y0288312D01*
X1326292Y0288433D01*
X1326365Y0288552D01*
X1326442Y0288669D01*
X1326523Y0288783D01*
X1326606Y0288895D01*
X1326693Y0289005D01*
X1326783Y0289113D01*
X1326875Y0289217D01*
X1326971Y0289319D01*
X1327070Y0289419D01*
X1327171Y0289515D01*
X1327275Y0289609D01*
X1327382Y0289699D01*
X1327491Y0289786D01*
X1327603Y0289871D01*
X1327717Y0289952D01*
X1327833Y0290030D01*
X1327951Y0290104D01*
X1328072Y0290175D01*
X1328194Y0290243D01*
X1328319Y0290307D01*
X1328445Y0290368D01*
X1328572Y0290425D01*
X1328702Y0290478D01*
X1328833Y0290528D01*
X1328965Y0290573D01*
X1329098Y0290616D01*
X1329233Y0290654D01*
X1329368Y0290688D01*
X1329505Y0290719D01*
X1329642Y0290746D01*
X1329780Y0290768D01*
X1329919Y0290787D01*
X1330058Y0290802D01*
X1330197Y0290813D01*
X1330337Y0290820D01*
X1330477Y0290823D01*
X1330617Y0290822D01*
X1330757Y0290817D01*
X1330896Y0290808D01*
X1331036Y0290795D01*
X1331175Y0290778D01*
X1331313Y0290757D01*
X1331451Y0290733D01*
X1331588Y0290704D01*
X1331724Y0290672D01*
X1331859Y0290635D01*
X1331993Y0290595D01*
X1332126Y0290551D01*
X1332257Y0290503D01*
X1332387Y0290452D01*
X1332516Y0290397D01*
X1332643Y0290338D01*
X1332768Y0290275D01*
X1332891Y0290210D01*
X1333013Y0290140D01*
X1333132Y0290067D01*
X1333250Y0289991D01*
X1333365Y0289912D01*
X1333478Y0289829D01*
X1333588Y0289743D01*
X1333696Y0289654D01*
X1333801Y0289562D01*
X1333904Y0289467D01*
X1334004Y0289369D01*
X1334101Y0289269D01*
X1334195Y0289165D01*
X1334287Y0289059D01*
X1334375Y0288951D01*
X1334460Y0288840D01*
X1334542Y0288726D01*
X1334621Y0288610D01*
X1334696Y0288493D01*
X1334768Y0288373D01*
X1334836Y0288251D01*
X1334901Y0288127D01*
X1334963Y0288001D01*
X1335021Y0287874D01*
X1335075Y0287745D01*
X1335126Y0287614D01*
X1335172Y0287482D01*
X1335215Y0287349D01*
X1335255Y0287215D01*
X1335290Y0287080D01*
X1335322Y0286943D01*
X1335349Y0286806D01*
X1335373Y0286668D01*
X1335393Y0286530D01*
X1335409Y0286391D01*
X1335421Y0286251D01*
X1335429Y0286112D01*
X1335433Y0285972D01*
X1335433Y0285832D01*
X1335429Y0285692D01*
X1335421Y0285553D01*
X1335409Y0285413D01*
X1335393Y0285274D01*
X1335373Y0285136D01*
X1335349Y0284998D01*
X1335322Y0284861D01*
X1335290Y0284724D01*
X1335255Y0284589D01*
X1335215Y0284455D01*
X1335172Y0284322D01*
X1335126Y0284190D01*
X1335075Y0284059D01*
X1335021Y0283930D01*
X1334963Y0283803D01*
X1334901Y0283677D01*
X1334836Y0283553D01*
X1334768Y0283431D01*
X1334696Y0283311D01*
X1334621Y0283194D01*
X1334542Y0283078D01*
X1334460Y0282964D01*
X1334375Y0282853D01*
X1334287Y0282745D01*
X1334195Y0282639D01*
X1334101Y0282535D01*
X1334004Y0282435D01*
X1333904Y0282337D01*
X1333801Y0282242D01*
X1333696Y0282150D01*
X1333588Y0282061D01*
X1333478Y0281975D01*
X1333365Y0281892D01*
X1333250Y0281813D01*
X1333132Y0281737D01*
X1333013Y0281664D01*
X1332891Y0281594D01*
X1332768Y0281529D01*
X1332643Y0281466D01*
X1332516Y0281407D01*
X1332387Y0281352D01*
X1332257Y0281301D01*
X1332126Y0281253D01*
X1331993Y0281209D01*
X1331859Y0281169D01*
X1331724Y0281132D01*
X1331588Y0281100D01*
X1331451Y0281071D01*
X1331313Y0281047D01*
X1331175Y0281026D01*
X1331036Y0281009D01*
X1330896Y0280996D01*
X1330757Y0280987D01*
X1330617Y0280982D01*
X1330477Y0280981D01*
X1330337Y0280984D01*
X1330197Y0280991D01*
X1330058Y0281002D01*
X1329919Y0281017D01*
X1329780Y0281036D01*
X1329642Y0281058D01*
X1329505Y0281085D01*
X1329368Y0281116D01*
X1329233Y0281150D01*
X1329098Y0281188D01*
X1328965Y0281231D01*
X1328833Y0281276D01*
X1328702Y0281326D01*
X1328572Y0281379D01*
X1328445Y0281436D01*
X1328319Y0281497D01*
X1328194Y0281561D01*
X1328072Y0281629D01*
X1327951Y0281700D01*
X1327833Y0281774D01*
X1327717Y0281852D01*
X1327603Y0281933D01*
X1327491Y0282018D01*
X1327382Y0282105D01*
X1327275Y0282195D01*
X1327171Y0282289D01*
X1327070Y0282385D01*
X1326971Y0282485D01*
X1326875Y0282587D01*
X1326783Y0282691D01*
X1326693Y0282799D01*
X1326606Y0282909D01*
X1326523Y0283021D01*
X1326442Y0283135D01*
X1326365Y0283252D01*
X1326292Y0283371D01*
X1326221Y0283492D01*
X1326155Y0283615D01*
X1326091Y0283740D01*
X1326032Y0283866D01*
X1325976Y0283995D01*
X1325923Y0284124D01*
X1325875Y0284255D01*
X1325830Y0284388D01*
X1325789Y0284522D01*
X1325751Y0284657D01*
X1325718Y0284792D01*
X1325688Y0284929D01*
X1325662Y0285067D01*
X1325641Y0285205D01*
X1325623Y0285344D01*
X1325609Y0285483D01*
X1325599Y0285622D01*
X1325593Y0285762D01*
X1325591Y0285902D01*
X1325591Y0053618D02*
X1325593Y0053758D01*
X1325599Y0053898D01*
X1325609Y0054037D01*
X1325623Y0054176D01*
X1325641Y0054315D01*
X1325662Y0054453D01*
X1325688Y0054591D01*
X1325718Y0054728D01*
X1325751Y0054863D01*
X1325789Y0054998D01*
X1325830Y0055132D01*
X1325875Y0055265D01*
X1325923Y0055396D01*
X1325976Y0055525D01*
X1326032Y0055654D01*
X1326091Y0055780D01*
X1326155Y0055905D01*
X1326221Y0056028D01*
X1326292Y0056149D01*
X1326365Y0056268D01*
X1326442Y0056385D01*
X1326523Y0056499D01*
X1326606Y0056611D01*
X1326693Y0056721D01*
X1326783Y0056829D01*
X1326875Y0056933D01*
X1326971Y0057035D01*
X1327070Y0057135D01*
X1327171Y0057231D01*
X1327275Y0057325D01*
X1327382Y0057415D01*
X1327491Y0057502D01*
X1327603Y0057587D01*
X1327717Y0057668D01*
X1327833Y0057746D01*
X1327951Y0057820D01*
X1328072Y0057891D01*
X1328194Y0057959D01*
X1328319Y0058023D01*
X1328445Y0058084D01*
X1328572Y0058141D01*
X1328702Y0058194D01*
X1328833Y0058244D01*
X1328965Y0058289D01*
X1329098Y0058332D01*
X1329233Y0058370D01*
X1329368Y0058404D01*
X1329505Y0058435D01*
X1329642Y0058462D01*
X1329780Y0058484D01*
X1329919Y0058503D01*
X1330058Y0058518D01*
X1330197Y0058529D01*
X1330337Y0058536D01*
X1330477Y0058539D01*
X1330617Y0058538D01*
X1330757Y0058533D01*
X1330896Y0058524D01*
X1331036Y0058511D01*
X1331175Y0058494D01*
X1331313Y0058473D01*
X1331451Y0058449D01*
X1331588Y0058420D01*
X1331724Y0058388D01*
X1331859Y0058351D01*
X1331993Y0058311D01*
X1332126Y0058267D01*
X1332257Y0058219D01*
X1332387Y0058168D01*
X1332516Y0058113D01*
X1332643Y0058054D01*
X1332768Y0057991D01*
X1332891Y0057926D01*
X1333013Y0057856D01*
X1333132Y0057783D01*
X1333250Y0057707D01*
X1333365Y0057628D01*
X1333478Y0057545D01*
X1333588Y0057459D01*
X1333696Y0057370D01*
X1333801Y0057278D01*
X1333904Y0057183D01*
X1334004Y0057085D01*
X1334101Y0056985D01*
X1334195Y0056881D01*
X1334287Y0056775D01*
X1334375Y0056667D01*
X1334460Y0056556D01*
X1334542Y0056442D01*
X1334621Y0056326D01*
X1334696Y0056209D01*
X1334768Y0056089D01*
X1334836Y0055967D01*
X1334901Y0055843D01*
X1334963Y0055717D01*
X1335021Y0055590D01*
X1335075Y0055461D01*
X1335126Y0055330D01*
X1335172Y0055198D01*
X1335215Y0055065D01*
X1335255Y0054931D01*
X1335290Y0054796D01*
X1335322Y0054659D01*
X1335349Y0054522D01*
X1335373Y0054384D01*
X1335393Y0054246D01*
X1335409Y0054107D01*
X1335421Y0053967D01*
X1335429Y0053828D01*
X1335433Y0053688D01*
X1335433Y0053548D01*
X1335429Y0053408D01*
X1335421Y0053269D01*
X1335409Y0053129D01*
X1335393Y0052990D01*
X1335373Y0052852D01*
X1335349Y0052714D01*
X1335322Y0052577D01*
X1335290Y0052440D01*
X1335255Y0052305D01*
X1335215Y0052171D01*
X1335172Y0052038D01*
X1335126Y0051906D01*
X1335075Y0051775D01*
X1335021Y0051646D01*
X1334963Y0051519D01*
X1334901Y0051393D01*
X1334836Y0051269D01*
X1334768Y0051147D01*
X1334696Y0051027D01*
X1334621Y0050910D01*
X1334542Y0050794D01*
X1334460Y0050680D01*
X1334375Y0050569D01*
X1334287Y0050461D01*
X1334195Y0050355D01*
X1334101Y0050251D01*
X1334004Y0050151D01*
X1333904Y0050053D01*
X1333801Y0049958D01*
X1333696Y0049866D01*
X1333588Y0049777D01*
X1333478Y0049691D01*
X1333365Y0049608D01*
X1333250Y0049529D01*
X1333132Y0049453D01*
X1333013Y0049380D01*
X1332891Y0049310D01*
X1332768Y0049245D01*
X1332643Y0049182D01*
X1332516Y0049123D01*
X1332387Y0049068D01*
X1332257Y0049017D01*
X1332126Y0048969D01*
X1331993Y0048925D01*
X1331859Y0048885D01*
X1331724Y0048848D01*
X1331588Y0048816D01*
X1331451Y0048787D01*
X1331313Y0048763D01*
X1331175Y0048742D01*
X1331036Y0048725D01*
X1330896Y0048712D01*
X1330757Y0048703D01*
X1330617Y0048698D01*
X1330477Y0048697D01*
X1330337Y0048700D01*
X1330197Y0048707D01*
X1330058Y0048718D01*
X1329919Y0048733D01*
X1329780Y0048752D01*
X1329642Y0048774D01*
X1329505Y0048801D01*
X1329368Y0048832D01*
X1329233Y0048866D01*
X1329098Y0048904D01*
X1328965Y0048947D01*
X1328833Y0048992D01*
X1328702Y0049042D01*
X1328572Y0049095D01*
X1328445Y0049152D01*
X1328319Y0049213D01*
X1328194Y0049277D01*
X1328072Y0049345D01*
X1327951Y0049416D01*
X1327833Y0049490D01*
X1327717Y0049568D01*
X1327603Y0049649D01*
X1327491Y0049734D01*
X1327382Y0049821D01*
X1327275Y0049911D01*
X1327171Y0050005D01*
X1327070Y0050101D01*
X1326971Y0050201D01*
X1326875Y0050303D01*
X1326783Y0050407D01*
X1326693Y0050515D01*
X1326606Y0050625D01*
X1326523Y0050737D01*
X1326442Y0050851D01*
X1326365Y0050968D01*
X1326292Y0051087D01*
X1326221Y0051208D01*
X1326155Y0051331D01*
X1326091Y0051456D01*
X1326032Y0051582D01*
X1325976Y0051711D01*
X1325923Y0051840D01*
X1325875Y0051971D01*
X1325830Y0052104D01*
X1325789Y0052238D01*
X1325751Y0052373D01*
X1325718Y0052508D01*
X1325688Y0052645D01*
X1325662Y0052783D01*
X1325641Y0052921D01*
X1325623Y0053060D01*
X1325609Y0053199D01*
X1325599Y0053338D01*
X1325593Y0053478D01*
X1325591Y0053618D01*
X1089370Y0053618D02*
X1089372Y0053758D01*
X1089378Y0053898D01*
X1089388Y0054037D01*
X1089402Y0054176D01*
X1089420Y0054315D01*
X1089441Y0054453D01*
X1089467Y0054591D01*
X1089497Y0054728D01*
X1089530Y0054863D01*
X1089568Y0054998D01*
X1089609Y0055132D01*
X1089654Y0055265D01*
X1089702Y0055396D01*
X1089755Y0055525D01*
X1089811Y0055654D01*
X1089870Y0055780D01*
X1089934Y0055905D01*
X1090000Y0056028D01*
X1090071Y0056149D01*
X1090144Y0056268D01*
X1090221Y0056385D01*
X1090302Y0056499D01*
X1090385Y0056611D01*
X1090472Y0056721D01*
X1090562Y0056829D01*
X1090654Y0056933D01*
X1090750Y0057035D01*
X1090849Y0057135D01*
X1090950Y0057231D01*
X1091054Y0057325D01*
X1091161Y0057415D01*
X1091270Y0057502D01*
X1091382Y0057587D01*
X1091496Y0057668D01*
X1091612Y0057746D01*
X1091730Y0057820D01*
X1091851Y0057891D01*
X1091973Y0057959D01*
X1092098Y0058023D01*
X1092224Y0058084D01*
X1092351Y0058141D01*
X1092481Y0058194D01*
X1092612Y0058244D01*
X1092744Y0058289D01*
X1092877Y0058332D01*
X1093012Y0058370D01*
X1093147Y0058404D01*
X1093284Y0058435D01*
X1093421Y0058462D01*
X1093559Y0058484D01*
X1093698Y0058503D01*
X1093837Y0058518D01*
X1093976Y0058529D01*
X1094116Y0058536D01*
X1094256Y0058539D01*
X1094396Y0058538D01*
X1094536Y0058533D01*
X1094675Y0058524D01*
X1094815Y0058511D01*
X1094954Y0058494D01*
X1095092Y0058473D01*
X1095230Y0058449D01*
X1095367Y0058420D01*
X1095503Y0058388D01*
X1095638Y0058351D01*
X1095772Y0058311D01*
X1095905Y0058267D01*
X1096036Y0058219D01*
X1096166Y0058168D01*
X1096295Y0058113D01*
X1096422Y0058054D01*
X1096547Y0057991D01*
X1096670Y0057926D01*
X1096792Y0057856D01*
X1096911Y0057783D01*
X1097029Y0057707D01*
X1097144Y0057628D01*
X1097257Y0057545D01*
X1097367Y0057459D01*
X1097475Y0057370D01*
X1097580Y0057278D01*
X1097683Y0057183D01*
X1097783Y0057085D01*
X1097880Y0056985D01*
X1097974Y0056881D01*
X1098066Y0056775D01*
X1098154Y0056667D01*
X1098239Y0056556D01*
X1098321Y0056442D01*
X1098400Y0056326D01*
X1098475Y0056209D01*
X1098547Y0056089D01*
X1098615Y0055967D01*
X1098680Y0055843D01*
X1098742Y0055717D01*
X1098800Y0055590D01*
X1098854Y0055461D01*
X1098905Y0055330D01*
X1098951Y0055198D01*
X1098994Y0055065D01*
X1099034Y0054931D01*
X1099069Y0054796D01*
X1099101Y0054659D01*
X1099128Y0054522D01*
X1099152Y0054384D01*
X1099172Y0054246D01*
X1099188Y0054107D01*
X1099200Y0053967D01*
X1099208Y0053828D01*
X1099212Y0053688D01*
X1099212Y0053548D01*
X1099208Y0053408D01*
X1099200Y0053269D01*
X1099188Y0053129D01*
X1099172Y0052990D01*
X1099152Y0052852D01*
X1099128Y0052714D01*
X1099101Y0052577D01*
X1099069Y0052440D01*
X1099034Y0052305D01*
X1098994Y0052171D01*
X1098951Y0052038D01*
X1098905Y0051906D01*
X1098854Y0051775D01*
X1098800Y0051646D01*
X1098742Y0051519D01*
X1098680Y0051393D01*
X1098615Y0051269D01*
X1098547Y0051147D01*
X1098475Y0051027D01*
X1098400Y0050910D01*
X1098321Y0050794D01*
X1098239Y0050680D01*
X1098154Y0050569D01*
X1098066Y0050461D01*
X1097974Y0050355D01*
X1097880Y0050251D01*
X1097783Y0050151D01*
X1097683Y0050053D01*
X1097580Y0049958D01*
X1097475Y0049866D01*
X1097367Y0049777D01*
X1097257Y0049691D01*
X1097144Y0049608D01*
X1097029Y0049529D01*
X1096911Y0049453D01*
X1096792Y0049380D01*
X1096670Y0049310D01*
X1096547Y0049245D01*
X1096422Y0049182D01*
X1096295Y0049123D01*
X1096166Y0049068D01*
X1096036Y0049017D01*
X1095905Y0048969D01*
X1095772Y0048925D01*
X1095638Y0048885D01*
X1095503Y0048848D01*
X1095367Y0048816D01*
X1095230Y0048787D01*
X1095092Y0048763D01*
X1094954Y0048742D01*
X1094815Y0048725D01*
X1094675Y0048712D01*
X1094536Y0048703D01*
X1094396Y0048698D01*
X1094256Y0048697D01*
X1094116Y0048700D01*
X1093976Y0048707D01*
X1093837Y0048718D01*
X1093698Y0048733D01*
X1093559Y0048752D01*
X1093421Y0048774D01*
X1093284Y0048801D01*
X1093147Y0048832D01*
X1093012Y0048866D01*
X1092877Y0048904D01*
X1092744Y0048947D01*
X1092612Y0048992D01*
X1092481Y0049042D01*
X1092351Y0049095D01*
X1092224Y0049152D01*
X1092098Y0049213D01*
X1091973Y0049277D01*
X1091851Y0049345D01*
X1091730Y0049416D01*
X1091612Y0049490D01*
X1091496Y0049568D01*
X1091382Y0049649D01*
X1091270Y0049734D01*
X1091161Y0049821D01*
X1091054Y0049911D01*
X1090950Y0050005D01*
X1090849Y0050101D01*
X1090750Y0050201D01*
X1090654Y0050303D01*
X1090562Y0050407D01*
X1090472Y0050515D01*
X1090385Y0050625D01*
X1090302Y0050737D01*
X1090221Y0050851D01*
X1090144Y0050968D01*
X1090071Y0051087D01*
X1090000Y0051208D01*
X1089934Y0051331D01*
X1089870Y0051456D01*
X1089811Y0051582D01*
X1089755Y0051711D01*
X1089702Y0051840D01*
X1089654Y0051971D01*
X1089609Y0052104D01*
X1089568Y0052238D01*
X1089530Y0052373D01*
X1089497Y0052508D01*
X1089467Y0052645D01*
X1089441Y0052783D01*
X1089420Y0052921D01*
X1089402Y0053060D01*
X1089388Y0053199D01*
X1089378Y0053338D01*
X1089372Y0053478D01*
X1089370Y0053618D01*
X0831102Y0057398D02*
X0831104Y0057546D01*
X0831110Y0057694D01*
X0831120Y0057842D01*
X0831134Y0057989D01*
X0831152Y0058136D01*
X0831173Y0058282D01*
X0831199Y0058428D01*
X0831229Y0058573D01*
X0831262Y0058717D01*
X0831300Y0058860D01*
X0831341Y0059002D01*
X0831386Y0059143D01*
X0831434Y0059283D01*
X0831487Y0059422D01*
X0831543Y0059559D01*
X0831603Y0059694D01*
X0831666Y0059828D01*
X0831733Y0059960D01*
X0831804Y0060090D01*
X0831878Y0060218D01*
X0831955Y0060344D01*
X0832036Y0060468D01*
X0832120Y0060590D01*
X0832207Y0060709D01*
X0832298Y0060826D01*
X0832392Y0060941D01*
X0832488Y0061053D01*
X0832588Y0061163D01*
X0832690Y0061269D01*
X0832796Y0061373D01*
X0832904Y0061474D01*
X0833015Y0061572D01*
X0833128Y0061668D01*
X0833244Y0061760D01*
X0833362Y0061849D01*
X0833483Y0061934D01*
X0833606Y0062017D01*
X0833731Y0062096D01*
X0833858Y0062172D01*
X0833987Y0062244D01*
X0834118Y0062313D01*
X0834251Y0062378D01*
X0834386Y0062439D01*
X0834522Y0062497D01*
X0834659Y0062552D01*
X0834798Y0062602D01*
X0834939Y0062649D01*
X0835080Y0062692D01*
X0835223Y0062732D01*
X0835367Y0062767D01*
X0835511Y0062799D01*
X0835657Y0062826D01*
X0835803Y0062850D01*
X0835950Y0062870D01*
X0836097Y0062886D01*
X0836244Y0062898D01*
X0836392Y0062906D01*
X0836540Y0062910D01*
X0836688Y0062910D01*
X0836836Y0062906D01*
X0836984Y0062898D01*
X0837131Y0062886D01*
X0837278Y0062870D01*
X0837425Y0062850D01*
X0837571Y0062826D01*
X0837717Y0062799D01*
X0837861Y0062767D01*
X0838005Y0062732D01*
X0838148Y0062692D01*
X0838289Y0062649D01*
X0838430Y0062602D01*
X0838569Y0062552D01*
X0838706Y0062497D01*
X0838842Y0062439D01*
X0838977Y0062378D01*
X0839110Y0062313D01*
X0839241Y0062244D01*
X0839370Y0062172D01*
X0839497Y0062096D01*
X0839622Y0062017D01*
X0839745Y0061934D01*
X0839866Y0061849D01*
X0839984Y0061760D01*
X0840100Y0061668D01*
X0840213Y0061572D01*
X0840324Y0061474D01*
X0840432Y0061373D01*
X0840538Y0061269D01*
X0840640Y0061163D01*
X0840740Y0061053D01*
X0840836Y0060941D01*
X0840930Y0060826D01*
X0841021Y0060709D01*
X0841108Y0060590D01*
X0841192Y0060468D01*
X0841273Y0060344D01*
X0841350Y0060218D01*
X0841424Y0060090D01*
X0841495Y0059960D01*
X0841562Y0059828D01*
X0841625Y0059694D01*
X0841685Y0059559D01*
X0841741Y0059422D01*
X0841794Y0059283D01*
X0841842Y0059143D01*
X0841887Y0059002D01*
X0841928Y0058860D01*
X0841966Y0058717D01*
X0841999Y0058573D01*
X0842029Y0058428D01*
X0842055Y0058282D01*
X0842076Y0058136D01*
X0842094Y0057989D01*
X0842108Y0057842D01*
X0842118Y0057694D01*
X0842124Y0057546D01*
X0842126Y0057398D01*
X0842124Y0057250D01*
X0842118Y0057102D01*
X0842108Y0056954D01*
X0842094Y0056807D01*
X0842076Y0056660D01*
X0842055Y0056514D01*
X0842029Y0056368D01*
X0841999Y0056223D01*
X0841966Y0056079D01*
X0841928Y0055936D01*
X0841887Y0055794D01*
X0841842Y0055653D01*
X0841794Y0055513D01*
X0841741Y0055374D01*
X0841685Y0055237D01*
X0841625Y0055102D01*
X0841562Y0054968D01*
X0841495Y0054836D01*
X0841424Y0054706D01*
X0841350Y0054578D01*
X0841273Y0054452D01*
X0841192Y0054328D01*
X0841108Y0054206D01*
X0841021Y0054087D01*
X0840930Y0053970D01*
X0840836Y0053855D01*
X0840740Y0053743D01*
X0840640Y0053633D01*
X0840538Y0053527D01*
X0840432Y0053423D01*
X0840324Y0053322D01*
X0840213Y0053224D01*
X0840100Y0053128D01*
X0839984Y0053036D01*
X0839866Y0052947D01*
X0839745Y0052862D01*
X0839622Y0052779D01*
X0839497Y0052700D01*
X0839370Y0052624D01*
X0839241Y0052552D01*
X0839110Y0052483D01*
X0838977Y0052418D01*
X0838842Y0052357D01*
X0838706Y0052299D01*
X0838569Y0052244D01*
X0838430Y0052194D01*
X0838289Y0052147D01*
X0838148Y0052104D01*
X0838005Y0052064D01*
X0837861Y0052029D01*
X0837717Y0051997D01*
X0837571Y0051970D01*
X0837425Y0051946D01*
X0837278Y0051926D01*
X0837131Y0051910D01*
X0836984Y0051898D01*
X0836836Y0051890D01*
X0836688Y0051886D01*
X0836540Y0051886D01*
X0836392Y0051890D01*
X0836244Y0051898D01*
X0836097Y0051910D01*
X0835950Y0051926D01*
X0835803Y0051946D01*
X0835657Y0051970D01*
X0835511Y0051997D01*
X0835367Y0052029D01*
X0835223Y0052064D01*
X0835080Y0052104D01*
X0834939Y0052147D01*
X0834798Y0052194D01*
X0834659Y0052244D01*
X0834522Y0052299D01*
X0834386Y0052357D01*
X0834251Y0052418D01*
X0834118Y0052483D01*
X0833987Y0052552D01*
X0833858Y0052624D01*
X0833731Y0052700D01*
X0833606Y0052779D01*
X0833483Y0052862D01*
X0833362Y0052947D01*
X0833244Y0053036D01*
X0833128Y0053128D01*
X0833015Y0053224D01*
X0832904Y0053322D01*
X0832796Y0053423D01*
X0832690Y0053527D01*
X0832588Y0053633D01*
X0832488Y0053743D01*
X0832392Y0053855D01*
X0832298Y0053970D01*
X0832207Y0054087D01*
X0832120Y0054206D01*
X0832036Y0054328D01*
X0831955Y0054452D01*
X0831878Y0054578D01*
X0831804Y0054706D01*
X0831733Y0054836D01*
X0831666Y0054968D01*
X0831603Y0055102D01*
X0831543Y0055237D01*
X0831487Y0055374D01*
X0831434Y0055513D01*
X0831386Y0055653D01*
X0831341Y0055794D01*
X0831300Y0055936D01*
X0831262Y0056079D01*
X0831229Y0056223D01*
X0831199Y0056368D01*
X0831173Y0056514D01*
X0831152Y0056660D01*
X0831134Y0056807D01*
X0831120Y0056954D01*
X0831110Y0057102D01*
X0831104Y0057250D01*
X0831102Y0057398D01*
D11*
X0485000Y0323933D03*
X0475000Y0323933D03*
X0610000Y0423933D03*
X0620000Y0423933D03*
X0665000Y0433933D03*
X0665000Y0443933D03*
X0745000Y0568933D03*
X0755000Y0568933D03*
X1090000Y0358933D03*
X1100000Y0358933D03*
X1275000Y0403933D03*
X1305000Y0403933D03*
X1305000Y0443933D03*
X1275000Y0443933D03*
X1275000Y0463933D03*
X1305000Y0463933D03*
X1305000Y0503933D03*
X1305000Y0518933D03*
X1275000Y0518933D03*
X1275000Y0503933D03*
X1275000Y0558933D03*
X1275000Y0578933D03*
X1305000Y0578933D03*
X1305000Y0558933D03*
X1305000Y0618933D03*
X1275000Y0618933D03*
X1285000Y0648933D03*
X1295000Y0648933D03*
X1210000Y0743933D03*
X1200000Y0743933D03*
X1065000Y0823933D03*
X1055000Y0823933D03*
X1170000Y0903933D03*
X1180000Y0903933D03*
X1200000Y0903933D03*
X1205000Y0911433D03*
X1210000Y0903933D03*
X0845000Y0823933D03*
X0835000Y0823933D03*
X0625000Y0868933D03*
X0600000Y0861433D03*
X0590000Y0861433D03*
X0537500Y0873933D03*
X0532500Y0898933D03*
X0542500Y0898933D03*
X0625000Y0908933D03*
X0537500Y0833933D03*
X1190000Y0538933D03*
X1200000Y0538933D03*
D12*
X1207600Y0558933D02*
X1212400Y0558933D01*
X1212400Y0568933D02*
X1207600Y0568933D01*
X1207600Y0578933D02*
X1212400Y0578933D01*
X1212400Y0588933D02*
X1207600Y0588933D01*
X1207600Y0598933D02*
X1212400Y0598933D01*
X1212400Y0608933D02*
X1207600Y0608933D01*
X1207600Y0618933D02*
X1212400Y0618933D01*
X1212400Y0628933D02*
X1207600Y0628933D01*
X1207600Y0638933D02*
X1212400Y0638933D01*
X1182400Y0638933D02*
X1177600Y0638933D01*
X1177600Y0628933D02*
X1182400Y0628933D01*
X1182400Y0618933D02*
X1177600Y0618933D01*
X1177600Y0608933D02*
X1182400Y0608933D01*
X1182400Y0598933D02*
X1177600Y0598933D01*
X1177600Y0588933D02*
X1182400Y0588933D01*
X1182400Y0578933D02*
X1177600Y0578933D01*
X1177600Y0568933D02*
X1182400Y0568933D01*
X1182400Y0558933D02*
X1177600Y0558933D01*
X1092400Y0543933D02*
X1087600Y0543933D01*
X1087600Y0533933D02*
X1092400Y0533933D01*
X1092400Y0523933D02*
X1087600Y0523933D01*
X1087600Y0513933D02*
X1092400Y0513933D01*
X1092400Y0503933D02*
X1087600Y0503933D01*
X1087600Y0493933D02*
X1092400Y0493933D01*
X1092400Y0483933D02*
X1087600Y0483933D01*
X1087600Y0473933D02*
X1092400Y0473933D01*
X1092400Y0463933D02*
X1087600Y0463933D01*
X1087600Y0453933D02*
X1092400Y0453933D01*
X1092400Y0443933D02*
X1087600Y0443933D01*
X1087600Y0433933D02*
X1092400Y0433933D01*
X1092400Y0423933D02*
X1087600Y0423933D01*
X1087600Y0413933D02*
X1092400Y0413933D01*
X1032400Y0413933D02*
X1027600Y0413933D01*
X1027600Y0423933D02*
X1032400Y0423933D01*
X1032400Y0433933D02*
X1027600Y0433933D01*
X1027600Y0443933D02*
X1032400Y0443933D01*
X1032400Y0453933D02*
X1027600Y0453933D01*
X1027600Y0463933D02*
X1032400Y0463933D01*
X1032400Y0473933D02*
X1027600Y0473933D01*
X1027600Y0483933D02*
X1032400Y0483933D01*
X1032400Y0493933D02*
X1027600Y0493933D01*
X1027600Y0503933D02*
X1032400Y0503933D01*
X1032400Y0513933D02*
X1027600Y0513933D01*
X1027600Y0523933D02*
X1032400Y0523933D01*
X1032400Y0533933D02*
X1027600Y0533933D01*
X1027600Y0543933D02*
X1032400Y0543933D01*
X1032400Y0643933D02*
X1027600Y0643933D01*
X1027600Y0653933D02*
X1032400Y0653933D01*
X1032400Y0663933D02*
X1027600Y0663933D01*
X1027600Y0673933D02*
X1032400Y0673933D01*
X1032400Y0683933D02*
X1027600Y0683933D01*
X1027600Y0693933D02*
X1032400Y0693933D01*
X1032400Y0703933D02*
X1027600Y0703933D01*
X1027600Y0713933D02*
X1032400Y0713933D01*
X1032400Y0723933D02*
X1027600Y0723933D01*
X1027600Y0733933D02*
X1032400Y0733933D01*
X1032400Y0743933D02*
X1027600Y0743933D01*
X1027600Y0753933D02*
X1032400Y0753933D01*
X1032400Y0763933D02*
X1027600Y0763933D01*
X1027600Y0773933D02*
X1032400Y0773933D01*
X1087600Y0773933D02*
X1092400Y0773933D01*
X1092400Y0763933D02*
X1087600Y0763933D01*
X1087600Y0753933D02*
X1092400Y0753933D01*
X1092400Y0743933D02*
X1087600Y0743933D01*
X1087600Y0733933D02*
X1092400Y0733933D01*
X1092400Y0723933D02*
X1087600Y0723933D01*
X1087600Y0713933D02*
X1092400Y0713933D01*
X1092400Y0703933D02*
X1087600Y0703933D01*
X1087600Y0693933D02*
X1092400Y0693933D01*
X1092400Y0683933D02*
X1087600Y0683933D01*
X1087600Y0673933D02*
X1092400Y0673933D01*
X1092400Y0663933D02*
X1087600Y0663933D01*
X1087600Y0653933D02*
X1092400Y0653933D01*
X1092400Y0643933D02*
X1087600Y0643933D01*
X1187600Y0768933D02*
X1192400Y0768933D01*
X1192400Y0778933D02*
X1187600Y0778933D01*
X1187600Y0788933D02*
X1192400Y0788933D01*
X1192400Y0798933D02*
X1187600Y0798933D01*
X1187600Y0808933D02*
X1192400Y0808933D01*
X1192400Y0818933D02*
X1187600Y0818933D01*
X1187600Y0828933D02*
X1192400Y0828933D01*
X1192400Y0838933D02*
X1187600Y0838933D01*
X1187600Y0848933D02*
X1192400Y0848933D01*
X1192400Y0858933D02*
X1187600Y0858933D01*
X1217600Y0858933D02*
X1222400Y0858933D01*
X1222400Y0848933D02*
X1217600Y0848933D01*
X1217600Y0838933D02*
X1222400Y0838933D01*
X1222400Y0828933D02*
X1217600Y0828933D01*
X1217600Y0818933D02*
X1222400Y0818933D01*
X1222400Y0808933D02*
X1217600Y0808933D01*
X1217600Y0798933D02*
X1222400Y0798933D01*
X1222400Y0788933D02*
X1217600Y0788933D01*
X1217600Y0778933D02*
X1222400Y0778933D01*
X1222400Y0768933D02*
X1217600Y0768933D01*
X1272600Y0768933D02*
X1277400Y0768933D01*
X1277400Y0758933D02*
X1272600Y0758933D01*
X1272600Y0748933D02*
X1277400Y0748933D01*
X1277400Y0738933D02*
X1272600Y0738933D01*
X1272600Y0728933D02*
X1277400Y0728933D01*
X1277400Y0718933D02*
X1272600Y0718933D01*
X1272600Y0708933D02*
X1277400Y0708933D01*
X1277400Y0698933D02*
X1272600Y0698933D01*
X1272600Y0688933D02*
X1277400Y0688933D01*
X1277400Y0678933D02*
X1272600Y0678933D01*
X1302600Y0678933D02*
X1307400Y0678933D01*
X1307400Y0688933D02*
X1302600Y0688933D01*
X1302600Y0698933D02*
X1307400Y0698933D01*
X1307400Y0708933D02*
X1302600Y0708933D01*
X1302600Y0718933D02*
X1307400Y0718933D01*
X1307400Y0728933D02*
X1302600Y0728933D01*
X1302600Y0738933D02*
X1307400Y0738933D01*
X1307400Y0748933D02*
X1302600Y0748933D01*
X1302600Y0758933D02*
X1307400Y0758933D01*
X1307400Y0768933D02*
X1302600Y0768933D01*
X0872400Y0763933D02*
X0867600Y0763933D01*
X0867600Y0753933D02*
X0872400Y0753933D01*
X0872400Y0743933D02*
X0867600Y0743933D01*
X0867600Y0733933D02*
X0872400Y0733933D01*
X0872400Y0723933D02*
X0867600Y0723933D01*
X0867600Y0713933D02*
X0872400Y0713933D01*
X0872400Y0703933D02*
X0867600Y0703933D01*
X0867600Y0693933D02*
X0872400Y0693933D01*
X0872400Y0683933D02*
X0867600Y0683933D01*
X0867600Y0673933D02*
X0872400Y0673933D01*
X0872400Y0663933D02*
X0867600Y0663933D01*
X0867600Y0653933D02*
X0872400Y0653933D01*
X0872400Y0643933D02*
X0867600Y0643933D01*
X0812400Y0643933D02*
X0807600Y0643933D01*
X0807600Y0653933D02*
X0812400Y0653933D01*
X0812400Y0663933D02*
X0807600Y0663933D01*
X0807600Y0673933D02*
X0812400Y0673933D01*
X0812400Y0683933D02*
X0807600Y0683933D01*
X0807600Y0693933D02*
X0812400Y0693933D01*
X0812400Y0703933D02*
X0807600Y0703933D01*
X0807600Y0713933D02*
X0812400Y0713933D01*
X0812400Y0723933D02*
X0807600Y0723933D01*
X0807600Y0733933D02*
X0812400Y0733933D01*
X0812400Y0743933D02*
X0807600Y0743933D01*
X0807600Y0753933D02*
X0812400Y0753933D01*
X0812400Y0763933D02*
X0807600Y0763933D01*
X0807600Y0773933D02*
X0812400Y0773933D01*
X0867600Y0773933D02*
X0872400Y0773933D01*
X0742400Y0768933D02*
X0737600Y0768933D01*
X0737600Y0758933D02*
X0742400Y0758933D01*
X0742400Y0748933D02*
X0737600Y0748933D01*
X0737600Y0738933D02*
X0742400Y0738933D01*
X0742400Y0728933D02*
X0737600Y0728933D01*
X0737600Y0718933D02*
X0742400Y0718933D01*
X0742400Y0708933D02*
X0737600Y0708933D01*
X0737600Y0698933D02*
X0742400Y0698933D01*
X0712400Y0698933D02*
X0707600Y0698933D01*
X0707600Y0708933D02*
X0712400Y0708933D01*
X0712400Y0718933D02*
X0707600Y0718933D01*
X0707600Y0728933D02*
X0712400Y0728933D01*
X0712400Y0738933D02*
X0707600Y0738933D01*
X0707600Y0748933D02*
X0712400Y0748933D01*
X0712400Y0758933D02*
X0707600Y0758933D01*
X0707600Y0768933D02*
X0712400Y0768933D01*
X0712400Y0778933D02*
X0707600Y0778933D01*
X0707600Y0788933D02*
X0712400Y0788933D01*
X0737600Y0788933D02*
X0742400Y0788933D01*
X0742400Y0778933D02*
X0737600Y0778933D01*
X0652400Y0778933D02*
X0647600Y0778933D01*
X0647600Y0768933D02*
X0652400Y0768933D01*
X0652400Y0758933D02*
X0647600Y0758933D01*
X0647600Y0748933D02*
X0652400Y0748933D01*
X0652400Y0738933D02*
X0647600Y0738933D01*
X0647600Y0728933D02*
X0652400Y0728933D01*
X0652400Y0718933D02*
X0647600Y0718933D01*
X0647600Y0708933D02*
X0652400Y0708933D01*
X0652400Y0698933D02*
X0647600Y0698933D01*
X0647600Y0688933D02*
X0652400Y0688933D01*
X0652400Y0678933D02*
X0647600Y0678933D01*
X0647600Y0668933D02*
X0652400Y0668933D01*
X0652400Y0658933D02*
X0647600Y0658933D01*
X0647600Y0648933D02*
X0652400Y0648933D01*
X0652400Y0638933D02*
X0647600Y0638933D01*
X0647600Y0628933D02*
X0652400Y0628933D01*
X0652400Y0618933D02*
X0647600Y0618933D01*
X0647600Y0608933D02*
X0652400Y0608933D01*
X0652400Y0598933D02*
X0647600Y0598933D01*
X0592400Y0598933D02*
X0587600Y0598933D01*
X0587600Y0608933D02*
X0592400Y0608933D01*
X0592400Y0618933D02*
X0587600Y0618933D01*
X0587600Y0628933D02*
X0592400Y0628933D01*
X0592400Y0638933D02*
X0587600Y0638933D01*
X0587600Y0648933D02*
X0592400Y0648933D01*
X0592400Y0658933D02*
X0587600Y0658933D01*
X0587600Y0668933D02*
X0592400Y0668933D01*
X0592400Y0678933D02*
X0587600Y0678933D01*
X0587600Y0688933D02*
X0592400Y0688933D01*
X0592400Y0698933D02*
X0587600Y0698933D01*
X0587600Y0708933D02*
X0592400Y0708933D01*
X0592400Y0718933D02*
X0587600Y0718933D01*
X0587600Y0728933D02*
X0592400Y0728933D01*
X0592400Y0738933D02*
X0587600Y0738933D01*
X0587600Y0748933D02*
X0592400Y0748933D01*
X0592400Y0758933D02*
X0587600Y0758933D01*
X0587600Y0768933D02*
X0592400Y0768933D01*
X0592400Y0778933D02*
X0587600Y0778933D01*
X0587600Y0788933D02*
X0592400Y0788933D01*
X0647600Y0788933D02*
X0652400Y0788933D01*
X0632400Y0553933D02*
X0627600Y0553933D01*
X0627600Y0543933D02*
X0632400Y0543933D01*
X0632400Y0533933D02*
X0627600Y0533933D01*
X0627600Y0523933D02*
X0632400Y0523933D01*
X0632400Y0513933D02*
X0627600Y0513933D01*
X0627600Y0503933D02*
X0632400Y0503933D01*
X0632400Y0493933D02*
X0627600Y0493933D01*
X0627600Y0483933D02*
X0632400Y0483933D01*
X0632400Y0473933D02*
X0627600Y0473933D01*
X0627600Y0463933D02*
X0632400Y0463933D01*
X0632400Y0453933D02*
X0627600Y0453933D01*
X0627600Y0443933D02*
X0632400Y0443933D01*
X0602400Y0443933D02*
X0597600Y0443933D01*
X0597600Y0453933D02*
X0602400Y0453933D01*
X0602400Y0463933D02*
X0597600Y0463933D01*
X0597600Y0473933D02*
X0602400Y0473933D01*
X0602400Y0483933D02*
X0597600Y0483933D01*
X0597600Y0493933D02*
X0602400Y0493933D01*
X0602400Y0503933D02*
X0597600Y0503933D01*
X0597600Y0513933D02*
X0602400Y0513933D01*
X0602400Y0523933D02*
X0597600Y0523933D01*
X0597600Y0533933D02*
X0602400Y0533933D01*
X0602400Y0543933D02*
X0597600Y0543933D01*
X0597600Y0553933D02*
X0602400Y0553933D01*
X0807600Y0543933D02*
X0812400Y0543933D01*
X0812400Y0533933D02*
X0807600Y0533933D01*
X0807600Y0523933D02*
X0812400Y0523933D01*
X0812400Y0513933D02*
X0807600Y0513933D01*
X0807600Y0503933D02*
X0812400Y0503933D01*
X0812400Y0493933D02*
X0807600Y0493933D01*
X0807600Y0483933D02*
X0812400Y0483933D01*
X0812400Y0473933D02*
X0807600Y0473933D01*
X0807600Y0463933D02*
X0812400Y0463933D01*
X0812400Y0453933D02*
X0807600Y0453933D01*
X0807600Y0443933D02*
X0812400Y0443933D01*
X0812400Y0433933D02*
X0807600Y0433933D01*
X0807600Y0423933D02*
X0812400Y0423933D01*
X0812400Y0413933D02*
X0807600Y0413933D01*
X0867600Y0413933D02*
X0872400Y0413933D01*
X0872400Y0423933D02*
X0867600Y0423933D01*
X0867600Y0433933D02*
X0872400Y0433933D01*
X0872400Y0443933D02*
X0867600Y0443933D01*
X0867600Y0453933D02*
X0872400Y0453933D01*
X0872400Y0463933D02*
X0867600Y0463933D01*
X0867600Y0473933D02*
X0872400Y0473933D01*
X0872400Y0483933D02*
X0867600Y0483933D01*
X0867600Y0493933D02*
X0872400Y0493933D01*
X0872400Y0503933D02*
X0867600Y0503933D01*
X0867600Y0513933D02*
X0872400Y0513933D01*
X0872400Y0523933D02*
X0867600Y0523933D01*
X0867600Y0533933D02*
X0872400Y0533933D01*
X0872400Y0543933D02*
X0867600Y0543933D01*
D13*
X1270000Y0823933D03*
X1280000Y0823933D03*
X1290000Y0823933D03*
X1300000Y0823933D03*
X1310000Y0823933D03*
X1310000Y0883933D03*
X1300000Y0883933D03*
X1290000Y0883933D03*
X1280000Y0883933D03*
X1270000Y0883933D03*
D14*
X0530000Y0356933D02*
X0530000Y0350933D01*
X0520000Y0350933D02*
X0520000Y0356933D01*
X0510000Y0356933D02*
X0510000Y0350933D01*
X0510000Y0276933D02*
X0510000Y0270933D01*
X0500000Y0270933D02*
X0500000Y0276933D01*
X0520000Y0276933D02*
X0520000Y0270933D01*
X0530000Y0270933D02*
X0530000Y0276933D01*
X0540000Y0276933D02*
X0540000Y0270933D01*
X0550000Y0270933D02*
X0550000Y0276933D01*
X0560000Y0276933D02*
X0560000Y0270933D01*
X0570000Y0270933D02*
X0570000Y0276933D01*
X0580000Y0276933D02*
X0580000Y0270933D01*
X0590000Y0270933D02*
X0590000Y0276933D01*
X0600000Y0276933D02*
X0600000Y0270933D01*
X0610000Y0270933D02*
X0610000Y0276933D01*
X0620000Y0276933D02*
X0620000Y0270933D01*
X0630000Y0270933D02*
X0630000Y0276933D01*
X0640000Y0276933D02*
X0640000Y0270933D01*
X0650000Y0270933D02*
X0650000Y0276933D01*
X0660000Y0276933D02*
X0660000Y0270933D01*
X0670000Y0270933D02*
X0670000Y0276933D01*
X1175000Y0036933D02*
X1175000Y0030933D01*
X1185000Y0030933D02*
X1185000Y0036933D01*
X1195000Y0036933D02*
X1195000Y0030933D01*
X1205000Y0030933D02*
X1205000Y0036933D01*
X1215000Y0036933D02*
X1215000Y0030933D01*
X1225000Y0030933D02*
X1225000Y0036933D01*
X1235000Y0036933D02*
X1235000Y0030933D01*
X1245000Y0030933D02*
X1245000Y0036933D01*
D15*
X0725500Y0409433D03*
X0695500Y0409433D03*
X0695500Y0439433D03*
X0725500Y0439433D03*
D16*
X0490000Y0691433D03*
X0470000Y0691433D03*
X0470000Y0761433D03*
X0490000Y0761433D03*
D17*
X0491331Y0869622D02*
X0478669Y0869622D01*
X0466102Y0875102D02*
X0466102Y0887764D01*
X0478669Y0893244D02*
X0491331Y0893244D01*
D18*
X0490625Y0827433D02*
X0479375Y0827433D01*
X0479375Y0808933D02*
X0490625Y0808933D01*
X0490625Y0790433D02*
X0479375Y0790433D01*
D19*
X0586142Y0880685D02*
X0586142Y0886591D01*
X0603858Y0886591D02*
X0603858Y0880685D01*
X0603858Y0906276D02*
X0603858Y0912181D01*
X0586142Y0912181D02*
X0586142Y0906276D01*
D20*
X0603858Y0909228D02*
X0603858Y0900075D01*
X0610000Y0893933D01*
X0615000Y0888933D01*
X0615000Y0876433D01*
X0600000Y0861433D01*
X0600000Y0808933D01*
X0590000Y0823933D02*
X0590000Y0861433D01*
X0586142Y0865291D01*
X0586142Y0883638D01*
X0625000Y0868933D02*
X0625000Y0838933D01*
X0650000Y0823933D02*
X0650000Y0788933D01*
X0705000Y0793933D02*
X0710000Y0788933D01*
X0705000Y0793933D02*
X0705000Y0813933D01*
X0705000Y0838933D01*
X0545000Y0833933D02*
X0545000Y0815731D01*
X0516600Y0787331D01*
X0516600Y0697331D01*
X0515000Y0695731D01*
X0515000Y0598933D01*
X0515000Y0443933D01*
X0515000Y0398933D01*
X0500000Y0383933D01*
X0500000Y0363933D01*
X0500000Y0338933D01*
X0485000Y0323933D01*
X0485000Y0298933D01*
X0500000Y0283933D01*
X0500000Y0273933D01*
X0510000Y0273933D02*
X0510000Y0308933D01*
X0475000Y0308933D02*
X0475000Y0323933D01*
X0475000Y0343933D01*
X0485000Y0353933D01*
X0490000Y0353933D01*
X0490000Y0573933D01*
X0490000Y0691433D01*
X0505000Y0708933D02*
X0505000Y0793933D01*
X0505000Y0810433D02*
X0505000Y0838933D01*
X0485000Y0858933D01*
X0485000Y0869622D01*
X0467500Y0881433D02*
X0480000Y0893933D01*
X0484311Y0893933D01*
X0485000Y0893244D01*
X0467500Y0881433D02*
X0466102Y0881433D01*
X0465000Y0880331D01*
X0465000Y0847433D01*
X0485000Y0827433D01*
X0460000Y0823933D02*
X0460000Y0813933D01*
X0456500Y0810433D01*
X0456500Y0677433D01*
X0460000Y0673933D01*
X0490000Y0761433D02*
X0487500Y0763933D01*
X0485000Y0763933D01*
X0465000Y0783933D01*
X0465000Y0798933D01*
X0475000Y0808933D01*
X0485000Y0808933D01*
X0485000Y0790433D02*
X0505000Y0810433D01*
X0520000Y0818933D02*
X0520000Y0838933D01*
X0510000Y0848933D01*
X0535000Y0873933D02*
X0525000Y0883933D01*
X0525000Y0891433D01*
X0532500Y0898933D01*
X0535000Y0873933D02*
X0537500Y0873933D01*
X0710000Y0698933D02*
X0710000Y0648933D01*
X0715000Y0643933D01*
X0715000Y0603933D01*
X0755000Y0603933D02*
X0755000Y0568933D01*
X0725000Y0553933D02*
X0725000Y0468933D01*
X0695500Y0439433D01*
X0665000Y0443933D02*
X0665000Y0433933D01*
X0585000Y0443933D02*
X0585000Y0403933D01*
X0520000Y0353933D02*
X0520000Y0273933D01*
X0670000Y0273933D02*
X0670000Y0293933D01*
X0745000Y0293933D02*
X0745000Y0398933D01*
X0870000Y0533933D02*
X0870000Y0543933D01*
X0870000Y0578933D01*
X0875000Y0583933D01*
X1030000Y0633933D02*
X1030000Y0643933D01*
X1085000Y0578933D02*
X1090000Y0573933D01*
X1090000Y0543933D01*
X1090000Y0533933D01*
X1160000Y0538933D02*
X1160000Y0488933D01*
X1125000Y0453933D01*
X1125000Y0353933D01*
X1120000Y0348933D01*
X1115000Y0343933D01*
X1100000Y0343933D01*
X1090000Y0353933D01*
X1090000Y0358933D01*
X1100000Y0358933D02*
X1110000Y0358933D01*
X1115000Y0363933D01*
X1115000Y0398933D01*
X1030000Y0398933D02*
X1030000Y0413933D01*
X1165000Y0558933D02*
X1165000Y0628933D01*
X1165000Y0678933D01*
X1210000Y0638933D02*
X1210000Y0628933D01*
X1210000Y0618933D01*
X1210000Y0638933D02*
X1210000Y0733933D01*
X1230000Y0733933D02*
X1230000Y0773933D01*
X1225000Y0778933D01*
X1220000Y0778933D01*
X1220000Y0768933D02*
X1220000Y0758933D01*
X1250000Y0758933D02*
X1250000Y0678933D01*
X1275000Y0678933D02*
X1275000Y0668933D01*
X1295000Y0648933D01*
X1165000Y0768933D02*
X1165000Y0798933D01*
X1165000Y0878933D01*
X1170000Y0893933D02*
X1190000Y0873933D01*
X1190000Y0858933D01*
X1220000Y0858933D02*
X1220000Y0868933D01*
X1200000Y0888933D01*
X1200000Y0903933D01*
X1205000Y0911433D02*
X1202500Y0913933D01*
X1175000Y0913933D01*
X1170000Y0908933D01*
X1170000Y0903933D01*
X1170000Y0893933D01*
X1180000Y0898933D02*
X1195000Y0883933D01*
X1195000Y0878933D01*
X1180000Y0898933D02*
X1180000Y0903933D01*
X1290000Y0883933D02*
X1290000Y0823933D01*
X1290000Y0783933D01*
X1090000Y0773933D02*
X1090000Y0798933D01*
X1085000Y0803933D01*
X0875000Y0803933D02*
X0870000Y0798933D01*
X0870000Y0773933D01*
X0630000Y0568933D02*
X0630000Y0553933D01*
D21*
X0630000Y0568933D03*
X0715000Y0603933D03*
X0755000Y0603933D03*
X0715000Y0643933D03*
X0725000Y0553933D03*
X0875000Y0583933D03*
X1030000Y0633933D03*
X1085000Y0578933D03*
X1160000Y0538933D03*
X1165000Y0558933D03*
X1165000Y0628933D03*
X1165000Y0678933D03*
X1210000Y0733933D03*
X1230000Y0733933D03*
X1220000Y0758933D03*
X1230000Y0773933D03*
X1250000Y0758933D03*
X1290000Y0783933D03*
X1220000Y0868933D03*
X1195000Y0878933D03*
X1165000Y0878933D03*
X1085000Y0803933D03*
X1165000Y0798933D03*
X1165000Y0768933D03*
X1250000Y0678933D03*
X0875000Y0803933D03*
X0705000Y0813933D03*
X0705000Y0838933D03*
X0650000Y0823933D03*
X0625000Y0838933D03*
X0590000Y0823933D03*
X0600000Y0808933D03*
X0545000Y0833933D03*
X0520000Y0818933D03*
X0505000Y0793933D03*
X0460000Y0823933D03*
X0510000Y0848933D03*
X0505000Y0708933D03*
X0460000Y0673933D03*
X0515000Y0598933D03*
X0490000Y0573933D03*
X0515000Y0443933D03*
X0585000Y0443933D03*
X0585000Y0403933D03*
X0500000Y0363933D03*
X0490000Y0353933D03*
X0475000Y0308933D03*
X0510000Y0308933D03*
X0670000Y0293933D03*
X0745000Y0293933D03*
X0745000Y0398933D03*
X1030000Y0398933D03*
X1115000Y0398933D03*
D22*
X1115000Y0463933D03*
X1140000Y0478933D03*
X1145000Y0488933D03*
X1125000Y0508933D03*
X1130000Y0513933D03*
X1135000Y0518933D03*
X1150000Y0523933D03*
X1155000Y0568933D03*
X1145000Y0578933D03*
X1140000Y0588933D03*
X1125000Y0598933D03*
X1130000Y0608933D03*
X1115000Y0613933D03*
X1105000Y0623933D03*
X1145000Y0658933D03*
X1140000Y0668933D03*
X1135000Y0678933D03*
X1130000Y0688933D03*
X1125000Y0698933D03*
X1115000Y0693933D03*
X1135000Y0703933D03*
X1155000Y0713933D03*
X1170000Y0723933D03*
X1150000Y0728933D03*
X1145000Y0733933D03*
X1180000Y0753933D03*
X1205000Y0753933D03*
X1220000Y0748933D03*
X1220000Y0743933D03*
X1225000Y0728933D03*
X1230000Y0708933D03*
X1245000Y0708933D03*
X1255000Y0718933D03*
X1240000Y0698933D03*
X1235000Y0683933D03*
X1240000Y0668933D03*
X1235000Y0663933D03*
X1245000Y0658933D03*
X1250000Y0653933D03*
X1255000Y0658933D03*
X1235000Y0643933D03*
X1240000Y0633933D03*
X1230000Y0628933D03*
X1230000Y0608933D03*
X1260000Y0628933D03*
X1290000Y0633933D03*
X1300000Y0628933D03*
X1310000Y0628933D03*
X1310000Y0623933D03*
X1315000Y0643933D03*
X1310000Y0648933D03*
X1305000Y0663933D03*
X1305000Y0668933D03*
X1295000Y0663933D03*
X1290000Y0663933D03*
X1290000Y0673933D03*
X1270000Y0658933D03*
X1185000Y0703933D03*
X1175000Y0663933D03*
X1150000Y0643933D03*
X1115000Y0578933D03*
X1220000Y0523933D03*
X1225000Y0518933D03*
X1230000Y0513933D03*
X1235000Y0508933D03*
X1240000Y0558933D03*
X1340000Y0573933D03*
X1345000Y0578933D03*
X1335000Y0463933D03*
X1340000Y0458933D03*
X1345000Y0398933D03*
X1245000Y0373933D03*
X1250000Y0443933D03*
X1070000Y0328933D03*
X1065000Y0328933D03*
X1060000Y0328933D03*
X1055000Y0328933D03*
X1050000Y0328933D03*
X1045000Y0328933D03*
X1040000Y0328933D03*
X1035000Y0328933D03*
X0940000Y0308933D03*
X0930000Y0313933D03*
X0920000Y0318933D03*
X0910000Y0323933D03*
X0900000Y0328933D03*
X0805000Y0373933D03*
X0765000Y0333933D03*
X0770000Y0328933D03*
X0760000Y0338933D03*
X0785000Y0303933D03*
X0775000Y0423933D03*
X0770000Y0433933D03*
X0765000Y0443933D03*
X0775000Y0458933D03*
X0790000Y0448933D03*
X0790000Y0478933D03*
X0785000Y0488933D03*
X0800000Y0508933D03*
X0800000Y0523933D03*
X0780000Y0518933D03*
X0775000Y0528933D03*
X0770000Y0538933D03*
X0785000Y0548933D03*
X0780000Y0593933D03*
X0780000Y0598933D03*
X0785000Y0608933D03*
X0775000Y0613933D03*
X0780000Y0618933D03*
X0785000Y0623933D03*
X0790000Y0628933D03*
X0805000Y0633933D03*
X0855000Y0618933D03*
X0890000Y0608933D03*
X0855000Y0578933D03*
X0890000Y0548933D03*
X0895000Y0538933D03*
X0900000Y0528933D03*
X0905000Y0523933D03*
X0910000Y0518933D03*
X0915000Y0513933D03*
X0920000Y0508933D03*
X0925000Y0503933D03*
X0930000Y0498933D03*
X0935000Y0493933D03*
X0940000Y0488933D03*
X0945000Y0483933D03*
X0950000Y0478933D03*
X0955000Y0473933D03*
X0960000Y0468933D03*
X0965000Y0458933D03*
X0970000Y0453933D03*
X0975000Y0448933D03*
X0980000Y0443933D03*
X0985000Y0438933D03*
X0990000Y0433933D03*
X0995000Y0428933D03*
X1000000Y0423933D03*
X1010000Y0413933D03*
X1225000Y0303933D03*
X1070000Y0088933D03*
X1070000Y0083933D03*
X1070000Y0078933D03*
X1070000Y0073933D03*
X1070000Y0068933D03*
X1070000Y0063933D03*
X1070000Y0058933D03*
X1070000Y0053933D03*
X0630000Y0298933D03*
X0620000Y0303933D03*
X0610000Y0308933D03*
X0600000Y0313933D03*
X0590000Y0318933D03*
X0580000Y0323933D03*
X0570000Y0328933D03*
X0560000Y0333933D03*
X0590000Y0348933D03*
X0590000Y0353933D03*
X0590000Y0358933D03*
X0590000Y0363933D03*
X0590000Y0368933D03*
X0590000Y0373933D03*
X0590000Y0378933D03*
X0590000Y0383933D03*
X0575000Y0413933D03*
X0570000Y0413933D03*
X0545000Y0388933D03*
X0540000Y0378933D03*
X0640000Y0453933D03*
X0650000Y0463933D03*
X0675000Y0463933D03*
X0680000Y0483933D03*
X0670000Y0493933D03*
X0685000Y0498933D03*
X0680000Y0508933D03*
X0690000Y0513933D03*
X0685000Y0533933D03*
X0705000Y0543933D03*
X0720000Y0573933D03*
X0730000Y0583933D03*
X0725000Y0588933D03*
X0740000Y0608933D03*
X0765000Y0598933D03*
X0690000Y0643933D03*
X0685000Y0638933D03*
X0680000Y0633933D03*
X0675000Y0628933D03*
X0670000Y0623933D03*
X0665000Y0618933D03*
X0685000Y0648933D03*
X0690000Y0653933D03*
X0695000Y0658933D03*
X0700000Y0663933D03*
X0705000Y0668933D03*
X0725000Y0673933D03*
X0730000Y0678933D03*
X0755000Y0683933D03*
X0760000Y0693933D03*
X0765000Y0703933D03*
X0770000Y0713933D03*
X0775000Y0723933D03*
X0790000Y0708933D03*
X0800000Y0728933D03*
X0795000Y0733933D03*
X0795000Y0743933D03*
X0785000Y0753933D03*
X0770000Y0738933D03*
X0765000Y0743933D03*
X0760000Y0753933D03*
X0755000Y0763933D03*
X0750000Y0773933D03*
X0880000Y0778933D03*
X0885000Y0768933D03*
X0895000Y0758933D03*
X0900000Y0753933D03*
X0905000Y0748933D03*
X0910000Y0743933D03*
X0915000Y0738933D03*
X0920000Y0733933D03*
X0925000Y0728933D03*
X0930000Y0723933D03*
X0935000Y0718933D03*
X0945000Y0708933D03*
X0950000Y0703933D03*
X0955000Y0698933D03*
X0960000Y0688933D03*
X0965000Y0683933D03*
X0970000Y0678933D03*
X0975000Y0673933D03*
X0980000Y0668933D03*
X0985000Y0663933D03*
X0990000Y0658933D03*
X0995000Y0653933D03*
X1005000Y0643933D03*
X0945000Y0568933D03*
X0890000Y0693933D03*
X1115000Y0783933D03*
X1155000Y0788933D03*
X1150000Y0818933D03*
X1145000Y0828933D03*
X1140000Y0838933D03*
X1135000Y0848933D03*
X1170000Y0868933D03*
X1175000Y0873933D03*
X1180000Y0838933D03*
X1235000Y0828933D03*
X1240000Y0818933D03*
X1245000Y0808933D03*
X1255000Y0813933D03*
X1255000Y0798933D03*
X1315000Y0748933D03*
X1325000Y0758933D03*
X1345000Y0738933D03*
X1335000Y0823933D03*
X1340000Y0828933D03*
X1330000Y0883933D03*
X1260000Y0873933D03*
X1235000Y0888933D03*
X1225000Y0883933D03*
X1230000Y0863933D03*
X0655000Y0503933D03*
X0645000Y0503933D03*
X0640000Y0488933D03*
X0645000Y0523933D03*
X0590000Y0543933D03*
X0585000Y0533933D03*
X0565000Y0523933D03*
X0580000Y0473933D03*
X0585000Y0578933D03*
X0590000Y0583933D03*
X0580000Y0588933D03*
X0575000Y0673933D03*
X0570000Y0683933D03*
X0565000Y0693933D03*
X0560000Y0713933D03*
X0555000Y0723933D03*
X0550000Y0733933D03*
X0545000Y0743933D03*
X0540000Y0753933D03*
X0535000Y0763933D03*
X0530000Y0773933D03*
X0525000Y0783933D03*
D23*
X0525000Y0413933D01*
X0590000Y0348933D01*
X0590000Y0353933D02*
X0530000Y0413933D01*
X0530000Y0773933D01*
X0535000Y0763933D02*
X0535000Y0413933D01*
X0590000Y0358933D01*
X0590000Y0363933D02*
X0540000Y0413933D01*
X0540000Y0753933D01*
X0545000Y0743933D02*
X0545000Y0413933D01*
X0590000Y0368933D01*
X0590000Y0373933D02*
X0550000Y0413933D01*
X0550000Y0733933D01*
X0555000Y0723933D02*
X0555000Y0413933D01*
X0590000Y0378933D01*
X0590000Y0383933D02*
X0560000Y0413933D01*
X0560000Y0713933D01*
X0565000Y0693933D02*
X0565000Y0523933D01*
X0585000Y0533933D02*
X0585000Y0578933D01*
X0590000Y0583933D02*
X0590000Y0543933D01*
X0640000Y0513933D02*
X0645000Y0518933D01*
X0645000Y0523933D01*
X0640000Y0513933D02*
X0640000Y0488933D01*
X0635000Y0483933D02*
X0640000Y0478933D01*
X0640000Y0463933D01*
X0645000Y0458933D01*
X0675000Y0458933D01*
X0690000Y0473933D01*
X0715000Y0473933D01*
X0720000Y0478933D01*
X0720000Y0573933D01*
X0730000Y0583933D02*
X0730000Y0678933D01*
X0725000Y0673933D02*
X0725000Y0588933D01*
X0740000Y0608933D02*
X0740000Y0698933D01*
X0750000Y0688933D02*
X0755000Y0683933D01*
X0750000Y0688933D02*
X0750000Y0773933D01*
X0755000Y0763933D02*
X0755000Y0698933D01*
X0760000Y0693933D01*
X0765000Y0703933D02*
X0760000Y0708933D01*
X0760000Y0753933D01*
X0765000Y0743933D02*
X0765000Y0718933D01*
X0770000Y0713933D01*
X0775000Y0723933D02*
X0770000Y0728933D01*
X0770000Y0738933D01*
X0785000Y0753933D02*
X0785000Y0698933D01*
X0765000Y0678933D01*
X0765000Y0598933D01*
X0770000Y0588933D02*
X0780000Y0598933D01*
X0780000Y0593933D02*
X0780000Y0518933D01*
X0790000Y0523933D02*
X0795000Y0528933D01*
X0805000Y0528933D01*
X0810000Y0523933D01*
X0810000Y0513933D02*
X0805000Y0513933D01*
X0800000Y0518933D01*
X0800000Y0523933D01*
X0790000Y0523933D02*
X0790000Y0478933D01*
X0785000Y0488933D02*
X0785000Y0303933D01*
X0770000Y0328933D02*
X0770000Y0418933D01*
X0775000Y0423933D01*
X0765000Y0428933D02*
X0765000Y0333933D01*
X0760000Y0338933D02*
X0760000Y0438933D01*
X0765000Y0443933D01*
X0770000Y0433933D02*
X0765000Y0428933D01*
X0790000Y0448933D02*
X0790000Y0378933D01*
X0795000Y0373933D01*
X0805000Y0373933D01*
X0870000Y0413933D02*
X0890000Y0413933D01*
X0900000Y0403933D01*
X0900000Y0328933D01*
X0910000Y0323933D02*
X0910000Y0408933D01*
X0895000Y0423933D01*
X0870000Y0423933D01*
X0870000Y0433933D02*
X0900000Y0433933D01*
X0920000Y0413933D01*
X0920000Y0318933D01*
X0930000Y0313933D02*
X0930000Y0413933D01*
X0900000Y0443933D01*
X0870000Y0443933D01*
X0870000Y0453933D02*
X0905000Y0453933D01*
X0940000Y0418933D01*
X0940000Y0308933D01*
X1035000Y0328933D02*
X1035000Y0088933D01*
X1070000Y0053933D01*
X1070000Y0058933D02*
X1040000Y0088933D01*
X1040000Y0328933D01*
X1045000Y0328933D02*
X1045000Y0088933D01*
X1070000Y0063933D01*
X1070000Y0068933D02*
X1050000Y0088933D01*
X1050000Y0328933D01*
X1055000Y0328933D02*
X1055000Y0088933D01*
X1070000Y0073933D01*
X1070000Y0078933D02*
X1060000Y0088933D01*
X1060000Y0328933D01*
X1065000Y0328933D02*
X1065000Y0088933D01*
X1070000Y0083933D01*
X1070000Y0088933D02*
X1070000Y0328933D01*
X1010000Y0413933D02*
X1010000Y0578933D01*
X1005000Y0583933D01*
X1005000Y0643933D01*
X0995000Y0653933D02*
X0995000Y0583933D01*
X1000000Y0578933D01*
X1000000Y0423933D01*
X0995000Y0428933D02*
X0995000Y0578933D01*
X0990000Y0583933D01*
X0990000Y0658933D01*
X0985000Y0663933D02*
X0985000Y0583933D01*
X0990000Y0578933D01*
X0990000Y0433933D01*
X0985000Y0438933D02*
X0985000Y0578933D01*
X0980000Y0583933D01*
X0980000Y0668933D01*
X0975000Y0673933D02*
X0975000Y0583933D01*
X0980000Y0578933D01*
X0980000Y0443933D01*
X0975000Y0448933D02*
X0975000Y0578933D01*
X0970000Y0583933D01*
X0970000Y0678933D01*
X0965000Y0683933D02*
X0965000Y0583933D01*
X0970000Y0578933D01*
X0970000Y0453933D01*
X0965000Y0458933D02*
X0965000Y0578933D01*
X0960000Y0583933D01*
X0960000Y0688933D01*
X0955000Y0698933D02*
X0955000Y0583933D01*
X0960000Y0578933D01*
X0960000Y0468933D01*
X0955000Y0473933D02*
X0955000Y0578933D01*
X0950000Y0583933D01*
X0950000Y0703933D01*
X0945000Y0708933D02*
X0945000Y0583933D01*
X0950000Y0578933D01*
X0950000Y0478933D01*
X0945000Y0483933D02*
X0945000Y0568933D01*
X0940000Y0578933D02*
X0940000Y0488933D01*
X0935000Y0493933D02*
X0935000Y0578933D01*
X0930000Y0583933D01*
X0930000Y0723933D01*
X0935000Y0718933D02*
X0935000Y0583933D01*
X0940000Y0578933D01*
X0930000Y0578933D02*
X0930000Y0498933D01*
X0925000Y0503933D02*
X0925000Y0578933D01*
X0920000Y0583933D01*
X0920000Y0733933D01*
X0925000Y0728933D02*
X0925000Y0583933D01*
X0930000Y0578933D01*
X0920000Y0578933D02*
X0920000Y0508933D01*
X0915000Y0513933D02*
X0915000Y0578933D01*
X0910000Y0583933D01*
X0910000Y0743933D01*
X0915000Y0738933D02*
X0915000Y0583933D01*
X0920000Y0578933D01*
X0910000Y0578933D02*
X0910000Y0518933D01*
X0905000Y0523933D02*
X0905000Y0578933D01*
X0900000Y0583933D01*
X0900000Y0753933D01*
X0905000Y0748933D02*
X0905000Y0583933D01*
X0910000Y0578933D01*
X0900000Y0578933D02*
X0900000Y0528933D01*
X0895000Y0538933D02*
X0895000Y0573933D01*
X0885000Y0583933D01*
X0885000Y0768933D01*
X0880000Y0778933D02*
X0880000Y0583933D01*
X0890000Y0573933D01*
X0890000Y0548933D01*
X0900000Y0578933D02*
X0895000Y0583933D01*
X0895000Y0758933D01*
X0890000Y0693933D02*
X0890000Y0608933D01*
X0855000Y0618933D02*
X0855000Y0578933D01*
X0785000Y0548933D02*
X0785000Y0608933D01*
X0775000Y0613933D02*
X0775000Y0673933D01*
X0790000Y0688933D01*
X0790000Y0708933D01*
X0800000Y0728933D02*
X0800000Y0748933D01*
X0805000Y0753933D01*
X0810000Y0753933D01*
X0795000Y0743933D02*
X0795000Y0733933D01*
X0785000Y0673933D02*
X0810000Y0673933D01*
X0810000Y0663933D02*
X0790000Y0663933D01*
X0785000Y0658933D01*
X0785000Y0623933D01*
X0780000Y0618933D02*
X0780000Y0668933D01*
X0785000Y0673933D01*
X0795000Y0653933D02*
X0810000Y0653933D01*
X0795000Y0653933D02*
X0790000Y0648933D01*
X0790000Y0628933D01*
X0805000Y0633933D02*
X0865000Y0633933D01*
X0870000Y0638933D01*
X0870000Y0643933D01*
X0770000Y0588933D02*
X0770000Y0538933D01*
X0775000Y0528933D02*
X0775000Y0458933D01*
X0805000Y0493933D02*
X0810000Y0493933D01*
X0805000Y0493933D02*
X0800000Y0498933D01*
X0800000Y0508933D01*
X0705000Y0543933D02*
X0705000Y0668933D01*
X0700000Y0663933D02*
X0700000Y0703933D01*
X0705000Y0708933D01*
X0710000Y0708933D01*
X0710000Y0718933D02*
X0695000Y0703933D01*
X0695000Y0658933D01*
X0690000Y0653933D02*
X0690000Y0708933D01*
X0710000Y0728933D01*
X0710000Y0738933D02*
X0685000Y0713933D01*
X0685000Y0648933D01*
X0690000Y0643933D02*
X0690000Y0513933D01*
X0680000Y0508933D02*
X0680000Y0503933D01*
X0685000Y0498933D01*
X0680000Y0493933D02*
X0680000Y0483933D01*
X0680000Y0493933D02*
X0665000Y0508933D01*
X0665000Y0613933D01*
X0650000Y0628933D01*
X0650000Y0618933D02*
X0660000Y0608933D01*
X0660000Y0508933D01*
X0675000Y0493933D01*
X0675000Y0463933D01*
X0650000Y0463933D02*
X0645000Y0468933D01*
X0645000Y0503933D01*
X0650000Y0508933D02*
X0655000Y0503933D01*
X0656600Y0507333D02*
X0656600Y0600590D01*
X0650000Y0607190D01*
X0650000Y0608933D01*
X0650000Y0598933D02*
X0650000Y0508933D01*
X0656600Y0507333D02*
X0670000Y0493933D01*
X0635000Y0483933D02*
X0630000Y0483933D01*
X0640000Y0453933D02*
X0640000Y0368933D01*
X0615000Y0343933D01*
X0555000Y0343933D01*
X0550000Y0338933D01*
X0550000Y0273933D01*
X0540000Y0273933D02*
X0540000Y0283933D01*
X0545000Y0288933D01*
X0545000Y0388933D01*
X0540000Y0378933D02*
X0540000Y0288933D01*
X0530000Y0278933D01*
X0530000Y0273933D01*
X0560000Y0273933D02*
X0560000Y0333933D01*
X0570000Y0328933D02*
X0570000Y0273933D01*
X0580000Y0273933D02*
X0580000Y0323933D01*
X0590000Y0318933D02*
X0590000Y0273933D01*
X0600000Y0273933D02*
X0600000Y0313933D01*
X0610000Y0308933D02*
X0610000Y0273933D01*
X0620000Y0273933D02*
X0620000Y0303933D01*
X0630000Y0298933D02*
X0630000Y0273933D01*
X0575000Y0413933D02*
X0575000Y0673933D01*
X0570000Y0683933D02*
X0570000Y0413933D01*
X0580000Y0473933D02*
X0580000Y0588933D01*
X0580000Y0633933D01*
X0585000Y0638933D01*
X0590000Y0638933D01*
X0665000Y0618933D02*
X0665000Y0733933D01*
X0710000Y0778933D01*
X0710000Y0768933D02*
X0670000Y0728933D01*
X0670000Y0623933D01*
X0675000Y0628933D02*
X0675000Y0723933D01*
X0710000Y0758933D01*
X0710000Y0748933D02*
X0680000Y0718933D01*
X0680000Y0633933D01*
X0685000Y0638933D02*
X0685000Y0533933D01*
X1105000Y0623933D02*
X1105000Y0773933D01*
X1115000Y0783933D01*
X1155000Y0788933D02*
X1155000Y0713933D01*
X1155000Y0568933D01*
X1145000Y0578933D02*
X1145000Y0488933D01*
X1140000Y0478933D02*
X1140000Y0588933D01*
X1135000Y0588933D02*
X1135000Y0518933D01*
X1130000Y0513933D02*
X1130000Y0588933D01*
X1140000Y0598933D01*
X1140000Y0668933D01*
X1140000Y0838933D01*
X1145000Y0828933D02*
X1145000Y0733933D01*
X1145000Y0658933D01*
X1145000Y0598933D01*
X1135000Y0588933D01*
X1135000Y0598933D02*
X1125000Y0588933D01*
X1125000Y0508933D01*
X1150000Y0523933D02*
X1150000Y0643933D01*
X1150000Y0728933D01*
X1150000Y0818933D01*
X1180000Y0838933D02*
X1180000Y0753933D01*
X1185000Y0753933D02*
X1185000Y0703933D01*
X1170000Y0723933D02*
X1170000Y0868933D01*
X1175000Y0873933D02*
X1175000Y0663933D01*
X1135000Y0678933D02*
X1135000Y0598933D01*
X1125000Y0598933D02*
X1125000Y0698933D01*
X1130000Y0688933D02*
X1130000Y0608933D01*
X1115000Y0613933D02*
X1115000Y0693933D01*
X1135000Y0703933D02*
X1135000Y0678933D01*
X1135000Y0703933D02*
X1135000Y0848933D01*
X1225000Y0868933D02*
X1230000Y0863933D01*
X1225000Y0868933D02*
X1225000Y0883933D01*
X1235000Y0888933D02*
X1235000Y0838933D01*
X1255000Y0818933D01*
X1255000Y0813933D01*
X1245000Y0808933D02*
X1245000Y0708933D01*
X1245000Y0658933D01*
X1250000Y0653933D02*
X1250000Y0668933D01*
X1255000Y0673933D01*
X1255000Y0718933D01*
X1255000Y0798933D01*
X1265000Y0818933D02*
X1270000Y0823933D01*
X1265000Y0818933D02*
X1265000Y0648933D01*
X1275000Y0638933D01*
X1275000Y0618933D01*
X1260000Y0628933D02*
X1260000Y0518933D01*
X1275000Y0503933D01*
X1295000Y0523933D02*
X1295000Y0628933D01*
X1315000Y0648933D01*
X1315000Y0748933D01*
X1325000Y0758933D02*
X1325000Y0588933D01*
X1315000Y0578933D01*
X1305000Y0578933D01*
X1285000Y0578933D02*
X1285000Y0633933D01*
X1270000Y0648933D01*
X1270000Y0658933D01*
X1260000Y0648933D02*
X1260000Y0873933D01*
X1300000Y0883933D02*
X1300000Y0888933D01*
X1305000Y0893933D01*
X1310000Y0893933D01*
X1320000Y0883933D01*
X1320000Y0628933D01*
X1310000Y0618933D01*
X1305000Y0618933D01*
X1305000Y0623933D02*
X1300000Y0628933D01*
X1305000Y0623933D02*
X1310000Y0623933D01*
X1310000Y0628933D02*
X1310000Y0633933D01*
X1315000Y0638933D01*
X1315000Y0643933D01*
X1310000Y0648933D02*
X1310000Y0673933D01*
X1313000Y0676933D01*
X1313000Y0725933D01*
X1310000Y0728933D01*
X1305000Y0728933D01*
X1305000Y0718933D02*
X1295000Y0708933D01*
X1295000Y0663933D01*
X1290000Y0663933D02*
X1290000Y0673933D01*
X1298400Y0671030D02*
X1305000Y0664430D01*
X1305000Y0663933D01*
X1305000Y0668933D02*
X1305000Y0678933D01*
X1298400Y0671030D02*
X1298400Y0697333D01*
X1300000Y0698933D01*
X1305000Y0698933D01*
X1255000Y0658933D02*
X1255000Y0373933D01*
X1225000Y0343933D01*
X1225000Y0303933D01*
X1245000Y0373933D02*
X1245000Y0618933D01*
X1240000Y0623933D01*
X1235000Y0623933D01*
X1230000Y0618933D01*
X1230000Y0608933D01*
X1225000Y0603933D02*
X1240000Y0588933D01*
X1240000Y0558933D01*
X1225000Y0568933D02*
X1215000Y0578933D01*
X1210000Y0578933D01*
X1210000Y0568933D02*
X1215000Y0568933D01*
X1220000Y0563933D01*
X1220000Y0523933D01*
X1225000Y0518933D02*
X1225000Y0568933D01*
X1230000Y0578933D02*
X1220000Y0588933D01*
X1210000Y0588933D01*
X1210000Y0598933D02*
X1225000Y0598933D01*
X1235000Y0588933D01*
X1235000Y0508933D01*
X1230000Y0513933D02*
X1230000Y0578933D01*
X1225000Y0603933D02*
X1225000Y0728933D01*
X1220000Y0743933D02*
X1210000Y0753933D01*
X1205000Y0753933D01*
X1210000Y0758933D02*
X1190000Y0758933D01*
X1185000Y0753933D01*
X1210000Y0758933D02*
X1220000Y0748933D01*
X1230000Y0708933D02*
X1230000Y0628933D01*
X1240000Y0633933D02*
X1240000Y0638933D01*
X1235000Y0643933D01*
X1235000Y0648933D02*
X1235000Y0663933D01*
X1240000Y0668933D02*
X1240000Y0698933D01*
X1240000Y0818933D01*
X1235000Y0828933D02*
X1235000Y0683933D01*
X1235000Y0648933D02*
X1250000Y0633933D01*
X1250000Y0443933D01*
X1290000Y0418933D02*
X1290000Y0633933D01*
X1265000Y0643933D02*
X1260000Y0648933D01*
X1265000Y0643933D02*
X1265000Y0568933D01*
X1275000Y0558933D01*
X1275000Y0578933D02*
X1285000Y0578933D01*
X1305000Y0563933D02*
X1330000Y0588933D01*
X1330000Y0883933D01*
X1340000Y0828933D02*
X1340000Y0588933D01*
X1330000Y0578933D01*
X1330000Y0463933D01*
X1310000Y0443933D01*
X1305000Y0443933D01*
X1290000Y0418933D02*
X1305000Y0403933D01*
X1345000Y0398933D02*
X1345000Y0578933D01*
X1340000Y0573933D02*
X1340000Y0458933D01*
X1335000Y0463933D02*
X1335000Y0578933D01*
X1345000Y0588933D01*
X1345000Y0738933D01*
X1335000Y0823933D02*
X1335000Y0588933D01*
X1325000Y0578933D01*
X1325000Y0513933D01*
X1315000Y0503933D01*
X1305000Y0503933D01*
X1305000Y0518933D02*
X1300000Y0518933D01*
X1295000Y0523933D01*
X1305000Y0558933D02*
X1305000Y0563933D01*
X1115000Y0578933D02*
X1115000Y0463933D01*
D24*
X0475000Y0418933D03*
X0475000Y0608933D03*
D25*
X0475000Y0418933D01*
M02*
